<svg xmlns="http://www.w3.org/2000/svg" xmlns:xlink="http://www.w3.org/1999/xlink" width="500" zoomAndPan="magnify" viewBox="0 0 375 374.999991" height="500" preserveAspectRatio="xMidYMid meet" version="1.0"><defs><g/><clipPath id="7849eb82cc"><path d="M 37.5 37.5 L 346.5 37.5 L 346.5 346.5 L 37.5 346.5 Z M 37.5 37.5 " clip-rule="nonzero"/></clipPath></defs><g clip-path="url(#7849eb82cc)"><path fill="#d9d9d9" d="M 191.4375 37.5 C 106.515625 37.5 37.5 106.515625 37.5 191.4375 C 37.5 276.359375 106.515625 345.375 191.4375 345.375 C 205.84375 345.375 219.917969 343.296875 233.421875 339.472656 L 233.421875 312.464844 C 222.953125 322.578125 211.089844 329.058594 198.433594 330.835938 L 198.433594 275.402344 L 233.421875 275.402344 L 233.421875 261.410156 L 198.433594 261.410156 L 198.433594 198.433594 L 233.421875 198.433594 L 233.421875 184.441406 L 198.433594 184.441406 L 198.433594 121.464844 L 264.003906 121.464844 C 270.265625 139.53125 274.226562 160.085938 275.101562 182.0625 L 282.402344 188.921875 L 289.316406 195.375 L 292.570312 198.433594 L 331.136719 198.433594 C 330.589844 209.121094 328.894531 219.617188 325.996094 229.785156 L 337.3125 240.390625 C 342.585938 224.730469 345.375 208.273438 345.375 191.4375 C 345.375 106.515625 276.359375 37.5 191.4375 37.5 Z M 184.441406 52.066406 L 184.441406 107.472656 L 124.554688 107.472656 C 127.179688 101.703125 129.964844 96.210938 133.054688 91.234375 C 147.023438 68.6875 165.035156 54.800781 184.441406 52.066406 Z M 198.433594 52.066406 C 222.953125 55.457031 244.464844 76.449219 258.457031 107.472656 L 198.433594 107.472656 Z M 243.917969 61.660156 C 267.695312 71.28125 288.140625 87.273438 303.308594 107.472656 L 273.4375 107.472656 C 265.78125 89.078125 255.695312 73.46875 243.917969 61.660156 Z M 138.441406 61.933594 C 132.125 68.304688 126.277344 75.601562 121.164062 83.855469 C 116.683594 91.097656 112.691406 99.027344 109.222656 107.472656 L 79.621094 107.472656 C 94.679688 87.4375 114.90625 71.554688 138.441406 61.933594 Z M 70.328125 121.464844 L 104.109375 121.464844 C 97.960938 140.542969 94.324219 161.863281 93.695312 184.441406 L 51.660156 184.441406 C 52.804688 161.535156 59.503906 140.160156 70.328125 121.464844 Z M 118.925781 121.464844 L 184.441406 121.464844 L 184.441406 184.441406 L 107.691406 184.441406 C 108.375 161.535156 112.363281 140.105469 118.925781 121.464844 Z M 278.574219 121.464844 L 312.65625 121.464844 C 323.453125 140.160156 330.070312 161.5625 331.191406 184.441406 L 289.179688 184.441406 C 288.523438 161.835938 284.804688 140.515625 278.574219 121.464844 Z M 51.660156 198.433594 L 93.695312 198.433594 C 94.324219 221.011719 97.960938 242.332031 104.109375 261.410156 L 70.328125 261.410156 C 59.503906 242.714844 52.804688 221.339844 51.660156 198.433594 Z M 107.691406 198.433594 L 184.441406 198.433594 L 184.441406 261.410156 L 118.925781 261.410156 C 112.363281 242.769531 108.375 221.339844 107.691406 198.433594 Z M 261.082031 198.433594 C 257.363281 198.625 254.410156 201.6875 254.410156 205.433594 L 254.410156 340.128906 C 254.410156 342.96875 256.105469 345.511719 258.730469 346.578125 C 261.355469 347.671875 264.359375 347.070312 266.355469 345.074219 L 287.429688 323.972656 L 305.003906 362.292969 C 306.617188 365.792969 310.773438 367.324219 314.296875 365.710938 L 341.300781 353.355469 C 344.800781 351.742188 346.332031 347.589844 344.71875 344.0625 L 326.488281 304.265625 L 359.371094 304.265625 C 362.238281 304.265625 364.835938 302.515625 365.875 299.839844 C 366.941406 297.160156 366.257812 294.125 364.152344 292.160156 L 266.191406 200.320312 C 264.796875 199.035156 262.96875 198.351562 261.082031 198.433594 Z M 268.40625 221.585938 L 341.65625 290.273438 L 316.511719 290.273438 C 315.417969 290.273438 314.351562 290.519531 313.367188 291.011719 L 312.628906 291.394531 C 309.269531 293.085938 307.820312 297.132812 309.40625 300.550781 L 329.085938 343.515625 L 314.789062 350.078125 L 295.957031 308.996094 C 295.027344 306.917969 293.085938 305.441406 290.847656 305.03125 C 288.578125 304.621094 286.28125 305.359375 284.667969 307 L 268.40625 323.234375 Z M 79.621094 275.402344 L 109.222656 275.402344 C 112.691406 283.847656 116.683594 291.777344 121.164062 299.019531 C 126.277344 307.273438 132.125 314.570312 138.441406 320.941406 C 114.90625 311.320312 94.679688 295.4375 79.621094 275.402344 Z M 124.554688 275.402344 L 184.441406 275.402344 L 184.441406 330.808594 C 165.035156 328.074219 147.023438 314.1875 133.054688 291.667969 C 129.964844 286.664062 127.179688 281.171875 124.554688 275.402344 Z M 124.554688 275.402344 " fill-opacity="1" fill-rule="nonzero"/></g><g fill="#000000" fill-opacity="1"><g transform="translate(37.500002, 173.312595)"><g><path d="M 24.90625 -39.828125 C 29.40625 -39.828125 33.535156 -37.832031 37.296875 -33.84375 C 41.054688 -29.851562 42.9375 -25.222656 42.9375 -19.953125 C 42.9375 -14.679688 41.066406 -10.0625 37.328125 -6.09375 C 33.585938 -2.132812 29.570312 -0.15625 25.28125 -0.15625 C 21 -0.15625 17.945312 -1.363281 16.125 -3.78125 C 15.71875 -1.3125 13.546875 -0.078125 9.609375 -0.078125 C 6.429688 -0.078125 4.488281 -0.757812 3.78125 -2.125 C 3.425781 -2.875 3.210938 -3.539062 3.140625 -4.125 C 3.066406 -4.707031 3.03125 -5.578125 3.03125 -6.734375 L 3.03125 -51.9375 C 3.03125 -53.101562 3.066406 -53.972656 3.140625 -54.546875 C 3.210938 -55.128906 3.425781 -55.773438 3.78125 -56.484375 C 4.488281 -57.847656 6.457031 -58.53125 9.6875 -58.53125 C 12.875 -58.53125 14.796875 -57.847656 15.453125 -56.484375 C 15.847656 -55.722656 16.082031 -55.050781 16.15625 -54.46875 C 16.238281 -53.894531 16.28125 -53.03125 16.28125 -51.875 L 16.28125 -36.125 C 18.300781 -38.59375 21.175781 -39.828125 24.90625 -39.828125 Z M 18.28125 -15.375 C 19.519531 -14.007812 21.070312 -13.328125 22.9375 -13.328125 C 24.8125 -13.328125 26.40625 -14.007812 27.71875 -15.375 C 29.03125 -16.738281 29.6875 -18.25 29.6875 -19.90625 C 29.6875 -21.570312 29.078125 -23.097656 27.859375 -24.484375 C 26.648438 -25.878906 25.035156 -26.578125 23.015625 -26.578125 C 20.992188 -26.578125 19.390625 -25.867188 18.203125 -24.453125 C 17.023438 -23.046875 16.4375 -21.519531 16.4375 -19.875 C 16.4375 -18.238281 17.050781 -16.738281 18.28125 -15.375 Z M 18.28125 -15.375 "/></g></g></g><g fill="#000000" fill-opacity="1"><g transform="translate(83.459969, 173.312595)"><g><path d="M 20.75 -0.15625 C 15.644531 -0.15625 11.414062 -2.082031 8.0625 -5.9375 C 4.707031 -9.800781 3.03125 -14.507812 3.03125 -20.0625 L 3.03125 -33.3125 C 3.03125 -34.53125 3.066406 -35.414062 3.140625 -35.96875 C 3.210938 -36.519531 3.425781 -37.175781 3.78125 -37.9375 C 4.488281 -39.300781 6.457031 -39.984375 9.6875 -39.984375 C 13.226562 -39.984375 15.300781 -39.023438 15.90625 -37.109375 C 16.207031 -36.296875 16.359375 -35.003906 16.359375 -33.234375 L 16.359375 -19.984375 C 16.359375 -17.921875 16.945312 -16.304688 18.125 -15.140625 C 19.3125 -13.984375 20.898438 -13.40625 22.890625 -13.40625 C 24.890625 -13.40625 26.507812 -14.007812 27.75 -15.21875 C 28.988281 -16.425781 29.609375 -18.015625 29.609375 -19.984375 L 29.609375 -33.390625 C 29.609375 -34.554688 29.644531 -35.425781 29.71875 -36 C 29.789062 -36.582031 30.03125 -37.253906 30.4375 -38.015625 C 31.09375 -39.328125 33.035156 -39.984375 36.265625 -39.984375 C 39.453125 -39.984375 41.394531 -39.300781 42.09375 -37.9375 C 42.445312 -37.175781 42.660156 -36.503906 42.734375 -35.921875 C 42.816406 -35.347656 42.859375 -34.476562 42.859375 -33.3125 L 42.859375 -6.515625 C 42.859375 -5.398438 42.816406 -4.550781 42.734375 -3.96875 C 42.660156 -3.394531 42.425781 -2.753906 42.03125 -2.046875 C 41.269531 -0.734375 39.320312 -0.078125 36.1875 -0.078125 C 33.113281 -0.078125 31.222656 -0.679688 30.515625 -1.890625 C 30.003906 -2.753906 29.75 -3.789062 29.75 -5 C 29.550781 -4.644531 29.097656 -4.140625 28.390625 -3.484375 C 27.679688 -2.828125 27 -2.269531 26.34375 -1.8125 C 24.632812 -0.707031 22.769531 -0.15625 20.75 -0.15625 Z M 20.75 -0.15625 "/></g></g></g><g fill="#000000" fill-opacity="1"><g transform="translate(130.47997, 173.312595)"><g><path d="M 3.328125 -3.5625 C 2.367188 -4.164062 1.890625 -5.125 1.890625 -6.4375 C 1.890625 -7.75 2.847656 -9.742188 4.765625 -12.421875 C 5.328125 -13.273438 6.222656 -13.703125 7.453125 -13.703125 C 8.691406 -13.703125 10.367188 -13.082031 12.484375 -11.84375 C 14.609375 -10.613281 16.53125 -10 18.25 -10 C 21.320312 -10 22.859375 -10.601562 22.859375 -11.8125 C 22.859375 -12.769531 21.171875 -13.476562 17.796875 -13.9375 C 14.617188 -14.382812 11.460938 -15.566406 8.328125 -17.484375 C 6.867188 -18.398438 5.65625 -19.828125 4.6875 -21.765625 C 3.726562 -23.710938 3.25 -26.023438 3.25 -28.703125 C 3.25 -36.671875 8.726562 -40.65625 19.6875 -40.65625 C 23.269531 -40.65625 26.953125 -39.800781 30.734375 -38.09375 C 32.503906 -37.28125 33.390625 -36.265625 33.390625 -35.046875 C 33.390625 -33.835938 32.832031 -32.347656 31.71875 -30.578125 C 30.613281 -28.816406 29.476562 -27.9375 28.3125 -27.9375 C 27.707031 -27.9375 26.582031 -28.316406 24.9375 -29.078125 C 23.300781 -29.835938 21.523438 -30.21875 19.609375 -30.21875 C 16.628906 -30.21875 15.140625 -29.660156 15.140625 -28.546875 C 15.140625 -27.035156 16.859375 -26.050781 20.296875 -25.59375 C 23.628906 -25.238281 26.859375 -24.28125 29.984375 -22.71875 C 31.453125 -22.007812 32.675781 -20.785156 33.65625 -19.046875 C 34.644531 -17.304688 35.140625 -15.125 35.140625 -12.5 C 35.140625 -9.875 34.644531 -7.640625 33.65625 -5.796875 C 32.675781 -3.953125 31.300781 -2.578125 29.53125 -1.671875 C 26.300781 -0.0976562 22.25 0.6875 17.375 0.6875 C 12.507812 0.6875 7.828125 -0.726562 3.328125 -3.5625 Z M 3.328125 -3.5625 "/></g></g></g><g fill="#000000" fill-opacity="1"><g transform="translate(168.641131, 173.312595)"><g><path d="M 3.03125 -33.234375 C 3.03125 -34.398438 3.066406 -35.269531 3.140625 -35.84375 C 3.210938 -36.425781 3.425781 -37.097656 3.78125 -37.859375 C 4.488281 -39.171875 6.457031 -39.828125 9.6875 -39.828125 C 12.113281 -39.828125 13.832031 -39.398438 14.84375 -38.546875 C 15.695312 -37.835938 16.148438 -36.75 16.203125 -35.28125 C 16.253906 -34.78125 16.28125 -34.050781 16.28125 -33.09375 L 16.28125 -6.59375 C 16.28125 -5.425781 16.238281 -4.550781 16.15625 -3.96875 C 16.082031 -3.394531 15.847656 -2.726562 15.453125 -1.96875 C 14.796875 -0.65625 12.847656 0 9.609375 0 C 6.429688 0 4.488281 -0.679688 3.78125 -2.046875 C 3.425781 -2.804688 3.210938 -3.460938 3.140625 -4.015625 C 3.066406 -4.566406 3.03125 -5.445312 3.03125 -6.65625 Z M 15.484375 -47.28125 C 15.109375 -46.550781 14.441406 -46.035156 13.484375 -45.734375 C 12.523438 -45.429688 11.25 -45.28125 9.65625 -45.28125 C 8.0625 -45.28125 6.785156 -45.429688 5.828125 -45.734375 C 4.867188 -46.035156 4.195312 -46.5625 3.8125 -47.3125 C 3.4375 -48.070312 3.210938 -48.742188 3.140625 -49.328125 C 3.066406 -49.910156 3.03125 -50.78125 3.03125 -51.9375 C 3.03125 -53.101562 3.066406 -53.972656 3.140625 -54.546875 C 3.210938 -55.128906 3.425781 -55.773438 3.78125 -56.484375 C 4.488281 -57.847656 6.457031 -58.53125 9.6875 -58.53125 C 12.875 -58.53125 14.796875 -57.847656 15.453125 -56.484375 C 15.847656 -55.722656 16.082031 -55.050781 16.15625 -54.46875 C 16.238281 -53.894531 16.28125 -53.023438 16.28125 -51.859375 C 16.28125 -50.703125 16.238281 -49.832031 16.15625 -49.25 C 16.082031 -48.675781 15.859375 -48.019531 15.484375 -47.28125 Z M 15.484375 -47.28125 "/></g></g></g><g fill="#000000" fill-opacity="1"><g transform="translate(189.084604, 173.312595)"><g><path d="M 25.21875 -39.90625 C 30.257812 -39.90625 34.457031 -37.972656 37.8125 -34.109375 C 41.175781 -30.242188 42.859375 -25.535156 42.859375 -19.984375 L 42.859375 -6.65625 C 42.859375 -5.5 42.816406 -4.628906 42.734375 -4.046875 C 42.660156 -3.472656 42.445312 -2.832031 42.09375 -2.125 C 41.394531 -0.757812 39.425781 -0.078125 36.1875 -0.078125 C 32.601562 -0.078125 30.535156 -1.007812 29.984375 -2.875 C 29.679688 -3.738281 29.53125 -5.023438 29.53125 -6.734375 L 29.53125 -20.0625 C 29.53125 -22.132812 28.9375 -23.75 27.75 -24.90625 C 26.5625 -26.070312 24.96875 -26.65625 22.96875 -26.65625 C 20.976562 -26.65625 19.363281 -26.046875 18.125 -24.828125 C 16.894531 -23.617188 16.28125 -22.03125 16.28125 -20.0625 L 16.28125 -6.65625 C 16.28125 -5.5 16.238281 -4.628906 16.15625 -4.046875 C 16.082031 -3.472656 15.847656 -2.832031 15.453125 -2.125 C 14.796875 -0.757812 12.847656 -0.078125 9.609375 -0.078125 C 6.429688 -0.078125 4.488281 -0.757812 3.78125 -2.125 C 3.425781 -2.875 3.210938 -3.539062 3.140625 -4.125 C 3.066406 -4.707031 3.03125 -5.578125 3.03125 -6.734375 L 3.03125 -33.546875 C 3.03125 -34.648438 3.066406 -35.492188 3.140625 -36.078125 C 3.210938 -36.660156 3.453125 -37.304688 3.859375 -38.015625 C 4.566406 -39.273438 6.507812 -39.90625 9.6875 -39.90625 C 12.769531 -39.90625 14.664062 -39.320312 15.375 -38.15625 C 15.875 -37.300781 16.125 -36.269531 16.125 -35.0625 C 16.332031 -35.414062 16.785156 -35.921875 17.484375 -36.578125 C 18.191406 -37.234375 18.875 -37.757812 19.53125 -38.15625 C 21.25 -39.320312 23.144531 -39.90625 25.21875 -39.90625 Z M 25.21875 -39.90625 "/></g></g></g><g fill="#000000" fill-opacity="1"><g transform="translate(236.104602, 173.312595)"><g><path d="M 41.5 -24.71875 C 41.5 -21.613281 40.726562 -19.316406 39.1875 -17.828125 C 37.644531 -16.335938 35.941406 -15.59375 34.078125 -15.59375 L 16.125 -15.59375 C 16.125 -14.1875 16.957031 -13 18.625 -12.03125 C 20.289062 -11.070312 21.957031 -10.59375 23.625 -10.59375 C 26.550781 -10.59375 28.847656 -10.898438 30.515625 -11.515625 L 31.34375 -11.8125 C 32.5625 -12.363281 33.570312 -12.640625 34.375 -12.640625 C 35.988281 -12.640625 37.378906 -11.503906 38.546875 -9.234375 C 39.203125 -7.867188 39.53125 -6.707031 39.53125 -5.75 C 39.53125 -1.257812 34.148438 0.984375 23.390625 0.984375 C 19.660156 0.984375 16.34375 0.34375 13.4375 -0.9375 C 10.539062 -2.226562 8.28125 -3.9375 6.65625 -6.0625 C 3.476562 -10.144531 1.890625 -14.710938 1.890625 -19.765625 C 1.890625 -26.117188 3.945312 -31.203125 8.0625 -35.015625 C 12.175781 -38.828125 17.3125 -40.734375 23.46875 -40.734375 C 30.488281 -40.734375 35.640625 -38.257812 38.921875 -33.3125 C 40.640625 -30.6875 41.5 -27.820312 41.5 -24.71875 Z M 25.515625 -22.484375 C 27.429688 -22.484375 28.390625 -23.289062 28.390625 -24.90625 C 28.390625 -26.070312 27.945312 -27.003906 27.0625 -27.703125 C 26.1875 -28.410156 24.925781 -28.765625 23.28125 -28.765625 C 21.644531 -28.765625 20.019531 -28.097656 18.40625 -26.765625 C 16.789062 -25.429688 15.984375 -24.003906 15.984375 -22.484375 Z M 25.515625 -22.484375 "/></g></g></g><g fill="#000000" fill-opacity="1"><g transform="translate(280.625954, 173.312595)"><g><path d="M 3.328125 -3.5625 C 2.367188 -4.164062 1.890625 -5.125 1.890625 -6.4375 C 1.890625 -7.75 2.847656 -9.742188 4.765625 -12.421875 C 5.328125 -13.273438 6.222656 -13.703125 7.453125 -13.703125 C 8.691406 -13.703125 10.367188 -13.082031 12.484375 -11.84375 C 14.609375 -10.613281 16.53125 -10 18.25 -10 C 21.320312 -10 22.859375 -10.601562 22.859375 -11.8125 C 22.859375 -12.769531 21.171875 -13.476562 17.796875 -13.9375 C 14.617188 -14.382812 11.460938 -15.566406 8.328125 -17.484375 C 6.867188 -18.398438 5.65625 -19.828125 4.6875 -21.765625 C 3.726562 -23.710938 3.25 -26.023438 3.25 -28.703125 C 3.25 -36.671875 8.726562 -40.65625 19.6875 -40.65625 C 23.269531 -40.65625 26.953125 -39.800781 30.734375 -38.09375 C 32.503906 -37.28125 33.390625 -36.265625 33.390625 -35.046875 C 33.390625 -33.835938 32.832031 -32.347656 31.71875 -30.578125 C 30.613281 -28.816406 29.476562 -27.9375 28.3125 -27.9375 C 27.707031 -27.9375 26.582031 -28.316406 24.9375 -29.078125 C 23.300781 -29.835938 21.523438 -30.21875 19.609375 -30.21875 C 16.628906 -30.21875 15.140625 -29.660156 15.140625 -28.546875 C 15.140625 -27.035156 16.859375 -26.050781 20.296875 -25.59375 C 23.628906 -25.238281 26.859375 -24.28125 29.984375 -22.71875 C 31.453125 -22.007812 32.675781 -20.785156 33.65625 -19.046875 C 34.644531 -17.304688 35.140625 -15.125 35.140625 -12.5 C 35.140625 -9.875 34.644531 -7.640625 33.65625 -5.796875 C 32.675781 -3.953125 31.300781 -2.578125 29.53125 -1.671875 C 26.300781 -0.0976562 22.25 0.6875 17.375 0.6875 C 12.507812 0.6875 7.828125 -0.726562 3.328125 -3.5625 Z M 3.328125 -3.5625 "/></g></g></g><g fill="#000000" fill-opacity="1"><g transform="translate(318.7871, 173.312595)"><g><path d="M 3.328125 -3.5625 C 2.367188 -4.164062 1.890625 -5.125 1.890625 -6.4375 C 1.890625 -7.75 2.847656 -9.742188 4.765625 -12.421875 C 5.328125 -13.273438 6.222656 -13.703125 7.453125 -13.703125 C 8.691406 -13.703125 10.367188 -13.082031 12.484375 -11.84375 C 14.609375 -10.613281 16.53125 -10 18.25 -10 C 21.320312 -10 22.859375 -10.601562 22.859375 -11.8125 C 22.859375 -12.769531 21.171875 -13.476562 17.796875 -13.9375 C 14.617188 -14.382812 11.460938 -15.566406 8.328125 -17.484375 C 6.867188 -18.398438 5.65625 -19.828125 4.6875 -21.765625 C 3.726562 -23.710938 3.25 -26.023438 3.25 -28.703125 C 3.25 -36.671875 8.726562 -40.65625 19.6875 -40.65625 C 23.269531 -40.65625 26.953125 -39.800781 30.734375 -38.09375 C 32.503906 -37.28125 33.390625 -36.265625 33.390625 -35.046875 C 33.390625 -33.835938 32.832031 -32.347656 31.71875 -30.578125 C 30.613281 -28.816406 29.476562 -27.9375 28.3125 -27.9375 C 27.707031 -27.9375 26.582031 -28.316406 24.9375 -29.078125 C 23.300781 -29.835938 21.523438 -30.21875 19.609375 -30.21875 C 16.628906 -30.21875 15.140625 -29.660156 15.140625 -28.546875 C 15.140625 -27.035156 16.859375 -26.050781 20.296875 -25.59375 C 23.628906 -25.238281 26.859375 -24.28125 29.984375 -22.71875 C 31.453125 -22.007812 32.675781 -20.785156 33.65625 -19.046875 C 34.644531 -17.304688 35.140625 -15.125 35.140625 -12.5 C 35.140625 -9.875 34.644531 -7.640625 33.65625 -5.796875 C 32.675781 -3.953125 31.300781 -2.578125 29.53125 -1.671875 C 26.300781 -0.0976562 22.25 0.6875 17.375 0.6875 C 12.507812 0.6875 7.828125 -0.726562 3.328125 -3.5625 Z M 3.328125 -3.5625 "/></g></g></g><g fill="#000000" fill-opacity="1"><g transform="translate(37.500002, 239.564574)"><g><path d="M 54.0625 -39.59375 C 57.289062 -38.1875 58.90625 -36.445312 58.90625 -34.375 C 58.90625 -33.519531 58.5 -32.144531 57.6875 -30.25 C 56.882812 -28.351562 56.207031 -26.703125 55.65625 -25.296875 L 47.328125 -5 C 46.566406 -2.78125 45.300781 -1.210938 43.53125 -0.296875 C 42.78125 0.0546875 41.820312 0.234375 40.65625 0.234375 C 39.5 0.234375 38.375 -0.207031 37.28125 -1.09375 C 36.195312 -1.976562 35.484375 -2.875 35.140625 -3.78125 L 34.53125 -5.078125 C 34.125 -6.085938 32.632812 -10.023438 30.0625 -16.890625 C 29.550781 -15.671875 28.800781 -13.6875 27.8125 -10.9375 C 26.832031 -8.1875 26.203125 -6.46875 25.921875 -5.78125 C 25.648438 -5.101562 25.476562 -4.648438 25.40625 -4.421875 C 25.332031 -4.203125 25.117188 -3.785156 24.765625 -3.171875 C 24.410156 -2.566406 24.003906 -2.039062 23.546875 -1.59375 C 22.335938 -0.375 20.945312 0.234375 19.375 0.234375 C 17.8125 0.234375 16.5 -0.207031 15.4375 -1.09375 C 14.382812 -1.976562 13.679688 -2.875 13.328125 -3.78125 L 1.890625 -31.65625 C 1.390625 -33.164062 1.140625 -34.148438 1.140625 -34.609375 C 1.140625 -36.617188 2.578125 -38.207031 5.453125 -39.375 C 7.066406 -40.03125 8.378906 -40.359375 9.390625 -40.359375 C 10.398438 -40.359375 11.21875 -40.144531 11.84375 -39.71875 C 12.476562 -39.289062 12.921875 -38.859375 13.171875 -38.421875 C 13.421875 -37.992188 13.625 -37.554688 13.78125 -37.109375 C 14.632812 -35.085938 16.425781 -30.335938 19.15625 -22.859375 L 23.625 -35.140625 C 23.925781 -36.140625 24.484375 -37.019531 25.296875 -37.78125 C 26.753906 -39.25 28.238281 -39.984375 29.75 -39.984375 C 31.269531 -39.984375 32.570312 -39.578125 33.65625 -38.765625 C 34.738281 -37.960938 35.484375 -37.15625 35.890625 -36.34375 L 36.5 -35.0625 C 39.019531 -27.988281 40.507812 -23.945312 40.96875 -22.9375 L 45.578125 -35.515625 C 46.796875 -38.742188 48.613281 -40.359375 51.03125 -40.359375 C 51.988281 -40.359375 53 -40.101562 54.0625 -39.59375 Z M 54.0625 -39.59375 "/></g></g></g><g fill="#000000" fill-opacity="1"><g transform="translate(98.679, 239.564574)"><g><path d="M 41.5 -24.71875 C 41.5 -21.613281 40.726562 -19.316406 39.1875 -17.828125 C 37.644531 -16.335938 35.941406 -15.59375 34.078125 -15.59375 L 16.125 -15.59375 C 16.125 -14.1875 16.957031 -13 18.625 -12.03125 C 20.289062 -11.070312 21.957031 -10.59375 23.625 -10.59375 C 26.550781 -10.59375 28.847656 -10.898438 30.515625 -11.515625 L 31.34375 -11.8125 C 32.5625 -12.363281 33.570312 -12.640625 34.375 -12.640625 C 35.988281 -12.640625 37.378906 -11.503906 38.546875 -9.234375 C 39.203125 -7.867188 39.53125 -6.707031 39.53125 -5.75 C 39.53125 -1.257812 34.148438 0.984375 23.390625 0.984375 C 19.660156 0.984375 16.34375 0.34375 13.4375 -0.9375 C 10.539062 -2.226562 8.28125 -3.9375 6.65625 -6.0625 C 3.476562 -10.144531 1.890625 -14.710938 1.890625 -19.765625 C 1.890625 -26.117188 3.945312 -31.203125 8.0625 -35.015625 C 12.175781 -38.828125 17.3125 -40.734375 23.46875 -40.734375 C 30.488281 -40.734375 35.640625 -38.257812 38.921875 -33.3125 C 40.640625 -30.6875 41.5 -27.820312 41.5 -24.71875 Z M 25.515625 -22.484375 C 27.429688 -22.484375 28.390625 -23.289062 28.390625 -24.90625 C 28.390625 -26.070312 27.945312 -27.003906 27.0625 -27.703125 C 26.1875 -28.410156 24.925781 -28.765625 23.28125 -28.765625 C 21.644531 -28.765625 20.019531 -28.097656 18.40625 -26.765625 C 16.789062 -25.429688 15.984375 -24.003906 15.984375 -22.484375 Z M 25.515625 -22.484375 "/></g></g></g><g fill="#000000" fill-opacity="1"><g transform="translate(143.200352, 239.564574)"><g><path d="M 24.90625 -39.828125 C 29.40625 -39.828125 33.535156 -37.832031 37.296875 -33.84375 C 41.054688 -29.851562 42.9375 -25.222656 42.9375 -19.953125 C 42.9375 -14.679688 41.066406 -10.0625 37.328125 -6.09375 C 33.585938 -2.132812 29.570312 -0.15625 25.28125 -0.15625 C 21 -0.15625 17.945312 -1.363281 16.125 -3.78125 C 15.71875 -1.3125 13.546875 -0.078125 9.609375 -0.078125 C 6.429688 -0.078125 4.488281 -0.757812 3.78125 -2.125 C 3.425781 -2.875 3.210938 -3.539062 3.140625 -4.125 C 3.066406 -4.707031 3.03125 -5.578125 3.03125 -6.734375 L 3.03125 -51.9375 C 3.03125 -53.101562 3.066406 -53.972656 3.140625 -54.546875 C 3.210938 -55.128906 3.425781 -55.773438 3.78125 -56.484375 C 4.488281 -57.847656 6.457031 -58.53125 9.6875 -58.53125 C 12.875 -58.53125 14.796875 -57.847656 15.453125 -56.484375 C 15.847656 -55.722656 16.082031 -55.050781 16.15625 -54.46875 C 16.238281 -53.894531 16.28125 -53.03125 16.28125 -51.875 L 16.28125 -36.125 C 18.300781 -38.59375 21.175781 -39.828125 24.90625 -39.828125 Z M 18.28125 -15.375 C 19.519531 -14.007812 21.070312 -13.328125 22.9375 -13.328125 C 24.8125 -13.328125 26.40625 -14.007812 27.71875 -15.375 C 29.03125 -16.738281 29.6875 -18.25 29.6875 -19.90625 C 29.6875 -21.570312 29.078125 -23.097656 27.859375 -24.484375 C 26.648438 -25.878906 25.035156 -26.578125 23.015625 -26.578125 C 20.992188 -26.578125 19.390625 -25.867188 18.203125 -24.453125 C 17.023438 -23.046875 16.4375 -21.519531 16.4375 -19.875 C 16.4375 -18.238281 17.050781 -16.738281 18.28125 -15.375 Z M 18.28125 -15.375 "/></g></g></g><g fill="#000000" fill-opacity="1"><g transform="translate(189.160323, 239.564574)"><g><path d="M 3.328125 -3.5625 C 2.367188 -4.164062 1.890625 -5.125 1.890625 -6.4375 C 1.890625 -7.75 2.847656 -9.742188 4.765625 -12.421875 C 5.328125 -13.273438 6.222656 -13.703125 7.453125 -13.703125 C 8.691406 -13.703125 10.367188 -13.082031 12.484375 -11.84375 C 14.609375 -10.613281 16.53125 -10 18.25 -10 C 21.320312 -10 22.859375 -10.601562 22.859375 -11.8125 C 22.859375 -12.769531 21.171875 -13.476562 17.796875 -13.9375 C 14.617188 -14.382812 11.460938 -15.566406 8.328125 -17.484375 C 6.867188 -18.398438 5.65625 -19.828125 4.6875 -21.765625 C 3.726562 -23.710938 3.25 -26.023438 3.25 -28.703125 C 3.25 -36.671875 8.726562 -40.65625 19.6875 -40.65625 C 23.269531 -40.65625 26.953125 -39.800781 30.734375 -38.09375 C 32.503906 -37.28125 33.390625 -36.265625 33.390625 -35.046875 C 33.390625 -33.835938 32.832031 -32.347656 31.71875 -30.578125 C 30.613281 -28.816406 29.476562 -27.9375 28.3125 -27.9375 C 27.707031 -27.9375 26.582031 -28.316406 24.9375 -29.078125 C 23.300781 -29.835938 21.523438 -30.21875 19.609375 -30.21875 C 16.628906 -30.21875 15.140625 -29.660156 15.140625 -28.546875 C 15.140625 -27.035156 16.859375 -26.050781 20.296875 -25.59375 C 23.628906 -25.238281 26.859375 -24.28125 29.984375 -22.71875 C 31.453125 -22.007812 32.675781 -20.785156 33.65625 -19.046875 C 34.644531 -17.304688 35.140625 -15.125 35.140625 -12.5 C 35.140625 -9.875 34.644531 -7.640625 33.65625 -5.796875 C 32.675781 -3.953125 31.300781 -2.578125 29.53125 -1.671875 C 26.300781 -0.0976562 22.25 0.6875 17.375 0.6875 C 12.507812 0.6875 7.828125 -0.726562 3.328125 -3.5625 Z M 3.328125 -3.5625 "/></g></g></g><g fill="#000000" fill-opacity="1"><g transform="translate(227.321484, 239.564574)"><g><path d="M 3.03125 -33.234375 C 3.03125 -34.398438 3.066406 -35.269531 3.140625 -35.84375 C 3.210938 -36.425781 3.425781 -37.097656 3.78125 -37.859375 C 4.488281 -39.171875 6.457031 -39.828125 9.6875 -39.828125 C 12.113281 -39.828125 13.832031 -39.398438 14.84375 -38.546875 C 15.695312 -37.835938 16.148438 -36.75 16.203125 -35.28125 C 16.253906 -34.78125 16.28125 -34.050781 16.28125 -33.09375 L 16.28125 -6.59375 C 16.28125 -5.425781 16.238281 -4.550781 16.15625 -3.96875 C 16.082031 -3.394531 15.847656 -2.726562 15.453125 -1.96875 C 14.796875 -0.65625 12.847656 0 9.609375 0 C 6.429688 0 4.488281 -0.679688 3.78125 -2.046875 C 3.425781 -2.804688 3.210938 -3.460938 3.140625 -4.015625 C 3.066406 -4.566406 3.03125 -5.445312 3.03125 -6.65625 Z M 15.484375 -47.28125 C 15.109375 -46.550781 14.441406 -46.035156 13.484375 -45.734375 C 12.523438 -45.429688 11.25 -45.28125 9.65625 -45.28125 C 8.0625 -45.28125 6.785156 -45.429688 5.828125 -45.734375 C 4.867188 -46.035156 4.195312 -46.5625 3.8125 -47.3125 C 3.4375 -48.070312 3.210938 -48.742188 3.140625 -49.328125 C 3.066406 -49.910156 3.03125 -50.78125 3.03125 -51.9375 C 3.03125 -53.101562 3.066406 -53.972656 3.140625 -54.546875 C 3.210938 -55.128906 3.425781 -55.773438 3.78125 -56.484375 C 4.488281 -57.847656 6.457031 -58.53125 9.6875 -58.53125 C 12.875 -58.53125 14.796875 -57.847656 15.453125 -56.484375 C 15.847656 -55.722656 16.082031 -55.050781 16.15625 -54.46875 C 16.238281 -53.894531 16.28125 -53.023438 16.28125 -51.859375 C 16.28125 -50.703125 16.238281 -49.832031 16.15625 -49.25 C 16.082031 -48.675781 15.859375 -48.019531 15.484375 -47.28125 Z M 15.484375 -47.28125 "/></g></g></g><g fill="#000000" fill-opacity="1"><g transform="translate(247.764957, 239.564574)"><g><path d="M 26.203125 -26.5 L 21.28125 -26.796875 L 21.28125 -16.359375 C 21.28125 -14.992188 21.492188 -14.007812 21.921875 -13.40625 C 22.347656 -12.800781 23.15625 -12.5 24.34375 -12.5 C 25.53125 -12.5 26.4375 -12.457031 27.0625 -12.375 C 27.695312 -12.300781 28.367188 -12.0625 29.078125 -11.65625 C 30.234375 -11 30.8125 -9.3125 30.8125 -6.59375 C 30.8125 -3.40625 30.109375 -1.457031 28.703125 -0.75 C 27.941406 -0.40625 27.269531 -0.191406 26.6875 -0.109375 C 26.101562 -0.0351562 25.257812 0 24.15625 0 C 18.90625 0 14.914062 -1.1875 12.1875 -3.5625 C 9.46875 -5.9375 8.109375 -9.945312 8.109375 -15.59375 L 8.109375 -26.796875 C 7.140625 -26.648438 6.097656 -26.578125 4.984375 -26.578125 C 3.878906 -26.578125 2.960938 -27.003906 2.234375 -27.859375 C 1.503906 -28.722656 1.140625 -30.1875 1.140625 -32.25 C 1.140625 -34.320312 1.265625 -35.820312 1.515625 -36.75 C 1.765625 -37.6875 2.117188 -38.359375 2.578125 -38.765625 C 3.378906 -39.421875 4.390625 -39.75 5.609375 -39.75 L 8.109375 -39.453125 L 8.109375 -47.25 C 8.109375 -48.40625 8.144531 -49.257812 8.21875 -49.8125 C 8.289062 -50.375 8.53125 -50.984375 8.9375 -51.640625 C 9.59375 -52.898438 11.535156 -53.53125 14.765625 -53.53125 C 18.191406 -53.53125 20.234375 -52.597656 20.890625 -50.734375 C 21.148438 -49.921875 21.28125 -48.632812 21.28125 -46.875 L 21.28125 -39.453125 C 23.5 -39.648438 25.175781 -39.75 26.3125 -39.75 C 27.445312 -39.75 28.300781 -39.710938 28.875 -39.640625 C 29.457031 -39.566406 30.128906 -39.328125 30.890625 -38.921875 C 32.203125 -38.265625 32.859375 -36.320312 32.859375 -33.09375 C 32.859375 -29.90625 32.175781 -27.960938 30.8125 -27.265625 C 30.0625 -26.910156 29.394531 -26.691406 28.8125 -26.609375 C 28.226562 -26.535156 27.359375 -26.5 26.203125 -26.5 Z M 26.203125 -26.5 "/></g></g></g><g fill="#000000" fill-opacity="1"><g transform="translate(282.897444, 239.564574)"><g><path d="M 41.5 -24.71875 C 41.5 -21.613281 40.726562 -19.316406 39.1875 -17.828125 C 37.644531 -16.335938 35.941406 -15.59375 34.078125 -15.59375 L 16.125 -15.59375 C 16.125 -14.1875 16.957031 -13 18.625 -12.03125 C 20.289062 -11.070312 21.957031 -10.59375 23.625 -10.59375 C 26.550781 -10.59375 28.847656 -10.898438 30.515625 -11.515625 L 31.34375 -11.8125 C 32.5625 -12.363281 33.570312 -12.640625 34.375 -12.640625 C 35.988281 -12.640625 37.378906 -11.503906 38.546875 -9.234375 C 39.203125 -7.867188 39.53125 -6.707031 39.53125 -5.75 C 39.53125 -1.257812 34.148438 0.984375 23.390625 0.984375 C 19.660156 0.984375 16.34375 0.34375 13.4375 -0.9375 C 10.539062 -2.226562 8.28125 -3.9375 6.65625 -6.0625 C 3.476562 -10.144531 1.890625 -14.710938 1.890625 -19.765625 C 1.890625 -26.117188 3.945312 -31.203125 8.0625 -35.015625 C 12.175781 -38.828125 17.3125 -40.734375 23.46875 -40.734375 C 30.488281 -40.734375 35.640625 -38.257812 38.921875 -33.3125 C 40.640625 -30.6875 41.5 -27.820312 41.5 -24.71875 Z M 25.515625 -22.484375 C 27.429688 -22.484375 28.390625 -23.289062 28.390625 -24.90625 C 28.390625 -26.070312 27.945312 -27.003906 27.0625 -27.703125 C 26.1875 -28.410156 24.925781 -28.765625 23.28125 -28.765625 C 21.644531 -28.765625 20.019531 -28.097656 18.40625 -26.765625 C 16.789062 -25.429688 15.984375 -24.003906 15.984375 -22.484375 Z M 25.515625 -22.484375 "/></g></g></g><g fill="#000000" fill-opacity="1"><g transform="translate(37.500002, 270.835502)"><g><path d="M 8.34375 -3.5 C 7.921875 -2.589844 6.890625 -1.96875 5.832031 -1.96875 C 4.164062 -1.96875 2.832031 -3.390625 2.832031 -5.148438 C 2.832031 -6.890625 4.164062 -8.328125 5.832031 -8.328125 C 6.875 -8.328125 7.90625 -7.753906 8.328125 -6.828125 L 10.859375 -6.828125 C 10.160156 -8.933594 8.175781 -10.449219 5.832031 -10.449219 C 2.90625 -10.449219 0.53125 -8.070312 0.53125 -5.148438 C 0.53125 -2.226562 2.90625 0.152344 5.832031 0.152344 C 8.175781 0.152344 10.175781 -1.378906 10.871094 -3.5 Z M 8.34375 -3.5 "/></g></g></g><g fill="#000000" fill-opacity="1"><g transform="translate(51.780165, 270.835502)"><g><path d="M 8.859375 -5.164062 C 8.859375 -3.574219 7.421875 -2.121094 5.832031 -2.121094 C 4.238281 -2.121094 2.800781 -3.574219 2.800781 -5.164062 C 2.800781 -6.753906 4.238281 -8.191406 5.832031 -8.191406 C 7.421875 -8.191406 8.859375 -6.753906 8.859375 -5.164062 Z M 11.128906 -5.148438 C 11.128906 -7.996094 8.675781 -10.449219 5.832031 -10.449219 C 2.984375 -10.449219 0.53125 -7.996094 0.53125 -5.148438 C 0.53125 -2.300781 2.984375 0.152344 5.832031 0.152344 C 8.675781 0.152344 11.128906 -2.300781 11.128906 -5.148438 Z M 11.128906 -5.148438 "/></g></g></g><g fill="#000000" fill-opacity="1"><g transform="translate(66.469196, 270.835502)"><g><path d="M 13.75 0 L 11.75 -10.296875 L 9.054688 -10.296875 L 6.921875 -3.074219 L 4.769531 -10.296875 L 2.074219 -10.296875 L 0.0742188 0 L 2.574219 0 L 3.785156 -7.101562 L 5.800781 0 L 8.027344 0 L 10.039062 -7.101562 L 11.25 0 Z M 13.75 0 "/></g></g></g><g fill="#000000" fill-opacity="1"><g transform="translate(83.323729, 270.835502)"><g><path d="M 3.179688 0 L 3.179688 -10.296875 L 0.910156 -10.296875 L 0.910156 0 Z M 3.179688 0 "/></g></g></g><g fill="#000000" fill-opacity="1"><g transform="translate(90.441092, 270.835502)"><g><path d="M 8.996094 0 L 8.996094 -10.296875 L 6.722656 -10.296875 L 6.722656 -3.875 L 3.179688 -10.296875 L 0.910156 -10.296875 L 0.910156 0 L 3.179688 0 L 3.179688 -6.421875 L 6.722656 0 Z M 8.996094 0 "/></g></g></g><g fill="#000000" fill-opacity="1"><g transform="translate(103.373497, 270.835502)"><g><path d="M 6.058594 -8.328125 C 7.058594 -8.328125 8.085938 -7.921875 8.585938 -6.828125 L 11.085938 -6.828125 C 10.375 -8.964844 8.328125 -10.449219 6.058594 -10.449219 C 3.148438 -10.449219 0.757812 -8.054688 0.757812 -5.148438 C 0.757812 -2.242188 3.148438 0.152344 6.058594 0.152344 C 8.996094 0.152344 11.34375 -2.226562 11.34375 -5.148438 L 11.34375 -5.496094 L 6.269531 -5.496094 L 6.269531 -3.785156 L 8.890625 -3.785156 C 8.328125 -2.226562 7.058594 -1.90625 6.058594 -1.90625 C 4.421875 -1.90625 3.058594 -3.378906 3.058594 -5.117188 C 3.058594 -6.859375 4.421875 -8.328125 6.058594 -8.328125 Z M 6.058594 -8.328125 "/></g></g></g><g fill="#000000" fill-opacity="1"><g transform="translate(118.274538, 270.835502)"><g/></g></g><g fill="#000000" fill-opacity="1"><g transform="translate(125.089032, 270.835502)"><g><path d="M 4.90625 -1.605469 C 3.785156 -1.605469 2.816406 -2.164062 2.757812 -3.390625 L 0.453125 -3.390625 C 0.46875 -0.878906 2.542969 0.242188 4.816406 0.242188 C 6.921875 0.242188 9.085938 -0.652344 9.085938 -3.074219 C 9.085938 -6.996094 3.132812 -5.679688 3.132812 -7.511719 C 3.132812 -8.285156 4.027344 -8.585938 4.664062 -8.585938 C 5.800781 -8.585938 6.421875 -8.238281 6.542969 -7.164062 L 8.738281 -7.164062 C 8.660156 -9.511719 6.753906 -10.449219 4.632812 -10.449219 C 2.757812 -10.449219 0.789062 -9.449219 0.789062 -7.328125 C 0.789062 -3.527344 6.738281 -4.816406 6.738281 -2.816406 C 6.738281 -1.894531 5.617188 -1.605469 4.90625 -1.605469 Z M 4.90625 -1.605469 "/></g></g></g><g fill="#000000" fill-opacity="1"><g transform="translate(137.657992, 270.835502)"><g><path d="M 8.859375 -5.164062 C 8.859375 -3.574219 7.421875 -2.121094 5.832031 -2.121094 C 4.238281 -2.121094 2.800781 -3.574219 2.800781 -5.164062 C 2.800781 -6.753906 4.238281 -8.191406 5.832031 -8.191406 C 7.421875 -8.191406 8.859375 -6.753906 8.859375 -5.164062 Z M 11.128906 -5.148438 C 11.128906 -7.996094 8.675781 -10.449219 5.832031 -10.449219 C 2.984375 -10.449219 0.53125 -7.996094 0.53125 -5.148438 C 0.53125 -2.300781 2.984375 0.152344 5.832031 0.152344 C 8.675781 0.152344 11.128906 -2.300781 11.128906 -5.148438 Z M 11.128906 -5.148438 "/></g></g></g><g fill="#000000" fill-opacity="1"><g transform="translate(152.34702, 270.835502)"><g><path d="M 8.859375 -5.164062 C 8.859375 -3.574219 7.421875 -2.121094 5.832031 -2.121094 C 4.238281 -2.121094 2.800781 -3.574219 2.800781 -5.164062 C 2.800781 -6.753906 4.238281 -8.191406 5.832031 -8.191406 C 7.421875 -8.191406 8.859375 -6.753906 8.859375 -5.164062 Z M 11.128906 -5.148438 C 11.128906 -7.996094 8.675781 -10.449219 5.832031 -10.449219 C 2.984375 -10.449219 0.53125 -7.996094 0.53125 -5.148438 C 0.53125 -2.300781 2.984375 0.152344 5.832031 0.152344 C 8.675781 0.152344 11.128906 -2.300781 11.128906 -5.148438 Z M 11.128906 -5.148438 "/></g></g></g><g fill="#000000" fill-opacity="1"><g transform="translate(167.036056, 270.835502)"><g><path d="M 8.996094 0 L 8.996094 -10.296875 L 6.722656 -10.296875 L 6.722656 -3.875 L 3.179688 -10.296875 L 0.910156 -10.296875 L 0.910156 0 L 3.179688 0 L 3.179688 -6.421875 L 6.722656 0 Z M 8.996094 0 "/></g></g></g></svg>