<svg xmlns="http://www.w3.org/2000/svg" xmlns:xlink="http://www.w3.org/1999/xlink" width="500" zoomAndPan="magnify" viewBox="0 0 375 374.999991" height="500" preserveAspectRatio="xMidYMid meet" version="1.0"><defs><g/><clipPath id="269b16edda"><path d="M 37.5 37.5 L 346.5 37.5 L 346.5 346.5 L 37.5 346.5 Z M 37.5 37.5 " clip-rule="nonzero"/></clipPath></defs><g clip-path="url(#269b16edda)"><path fill="#d9d9d9" d="M 191.4375 37.5 C 106.515625 37.5 37.5 106.515625 37.5 191.4375 C 37.5 276.359375 106.515625 345.375 191.4375 345.375 C 205.84375 345.375 219.917969 343.296875 233.421875 339.472656 L 233.421875 312.464844 C 222.953125 322.578125 211.089844 329.058594 198.433594 330.835938 L 198.433594 275.402344 L 233.421875 275.402344 L 233.421875 261.410156 L 198.433594 261.410156 L 198.433594 198.433594 L 233.421875 198.433594 L 233.421875 184.441406 L 198.433594 184.441406 L 198.433594 121.464844 L 264.003906 121.464844 C 270.265625 139.53125 274.226562 160.085938 275.101562 182.0625 L 282.402344 188.921875 L 289.316406 195.375 L 292.570312 198.433594 L 331.136719 198.433594 C 330.589844 209.121094 328.894531 219.617188 325.996094 229.785156 L 337.3125 240.390625 C 342.585938 224.730469 345.375 208.273438 345.375 191.4375 C 345.375 106.515625 276.359375 37.5 191.4375 37.5 Z M 184.441406 52.066406 L 184.441406 107.472656 L 124.554688 107.472656 C 127.179688 101.703125 129.964844 96.210938 133.054688 91.234375 C 147.023438 68.6875 165.035156 54.800781 184.441406 52.066406 Z M 198.433594 52.066406 C 222.953125 55.457031 244.464844 76.449219 258.457031 107.472656 L 198.433594 107.472656 Z M 243.917969 61.660156 C 267.695312 71.28125 288.140625 87.273438 303.308594 107.472656 L 273.4375 107.472656 C 265.78125 89.078125 255.695312 73.46875 243.917969 61.660156 Z M 138.441406 61.933594 C 132.125 68.304688 126.277344 75.601562 121.164062 83.855469 C 116.683594 91.097656 112.691406 99.027344 109.222656 107.472656 L 79.621094 107.472656 C 94.679688 87.4375 114.90625 71.554688 138.441406 61.933594 Z M 70.328125 121.464844 L 104.109375 121.464844 C 97.960938 140.542969 94.324219 161.863281 93.695312 184.441406 L 51.660156 184.441406 C 52.804688 161.535156 59.503906 140.160156 70.328125 121.464844 Z M 118.925781 121.464844 L 184.441406 121.464844 L 184.441406 184.441406 L 107.691406 184.441406 C 108.375 161.535156 112.363281 140.105469 118.925781 121.464844 Z M 278.574219 121.464844 L 312.65625 121.464844 C 323.453125 140.160156 330.070312 161.5625 331.191406 184.441406 L 289.179688 184.441406 C 288.523438 161.835938 284.804688 140.515625 278.574219 121.464844 Z M 51.660156 198.433594 L 93.695312 198.433594 C 94.324219 221.011719 97.960938 242.332031 104.109375 261.410156 L 70.328125 261.410156 C 59.503906 242.714844 52.804688 221.339844 51.660156 198.433594 Z M 107.691406 198.433594 L 184.441406 198.433594 L 184.441406 261.410156 L 118.925781 261.410156 C 112.363281 242.769531 108.375 221.339844 107.691406 198.433594 Z M 261.082031 198.433594 C 257.363281 198.625 254.410156 201.6875 254.410156 205.433594 L 254.410156 340.128906 C 254.410156 342.96875 256.105469 345.511719 258.730469 346.578125 C 261.355469 347.671875 264.359375 347.070312 266.355469 345.074219 L 287.429688 323.972656 L 305.003906 362.292969 C 306.617188 365.792969 310.773438 367.324219 314.296875 365.710938 L 341.300781 353.355469 C 344.800781 351.742188 346.332031 347.589844 344.71875 344.0625 L 326.488281 304.265625 L 359.371094 304.265625 C 362.238281 304.265625 364.835938 302.515625 365.875 299.839844 C 366.941406 297.160156 366.257812 294.125 364.152344 292.160156 L 266.191406 200.320312 C 264.796875 199.035156 262.96875 198.351562 261.082031 198.433594 Z M 268.40625 221.585938 L 341.65625 290.273438 L 316.511719 290.273438 C 315.417969 290.273438 314.351562 290.519531 313.367188 291.011719 L 312.628906 291.394531 C 309.269531 293.085938 307.820312 297.132812 309.40625 300.550781 L 329.085938 343.515625 L 314.789062 350.078125 L 295.957031 308.996094 C 295.027344 306.917969 293.085938 305.441406 290.847656 305.03125 C 288.578125 304.621094 286.28125 305.359375 284.667969 307 L 268.40625 323.234375 Z M 79.621094 275.402344 L 109.222656 275.402344 C 112.691406 283.847656 116.683594 291.777344 121.164062 299.019531 C 126.277344 307.273438 132.125 314.570312 138.441406 320.941406 C 114.90625 311.320312 94.679688 295.4375 79.621094 275.402344 Z M 124.554688 275.402344 L 184.441406 275.402344 L 184.441406 330.808594 C 165.035156 328.074219 147.023438 314.1875 133.054688 291.667969 C 129.964844 286.664062 127.179688 281.171875 124.554688 275.402344 Z M 124.554688 275.402344 " fill-opacity="1" fill-rule="nonzero"/></g><g fill="#000000" fill-opacity="1"><g transform="translate(37.500002, 173.312595)"><g><path d="M 14.765625 -12.5 C 15.617188 -11.632812 16.046875 -9.863281 16.046875 -7.1875 L 16.046875 -6.890625 C 16.046875 -5.679688 16.007812 -4.785156 15.9375 -4.203125 C 15.863281 -3.617188 15.597656 -2.925781 15.140625 -2.125 C 14.390625 -0.65625 12.484375 0.078125 9.421875 0.078125 C 6.367188 0.078125 4.347656 -0.398438 3.359375 -1.359375 C 2.378906 -2.316406 1.890625 -4.132812 1.890625 -6.8125 L 1.890625 -7.125 C 1.890625 -8.28125 1.925781 -9.160156 2 -9.765625 C 2.082031 -10.367188 2.320312 -11.050781 2.71875 -11.8125 C 3.476562 -13.320312 5.382812 -14.078125 8.4375 -14.078125 C 11.5 -14.078125 13.609375 -13.550781 14.765625 -12.5 Z M 14.765625 -12.5 "/></g></g></g><g fill="#000000" fill-opacity="1"><g transform="translate(56.580579, 173.312595)"><g><path d="M 13.203125 -45.84375 C 12.273438 -45.570312 11.03125 -45.4375 9.46875 -45.4375 C 7.90625 -45.4375 6.664062 -45.585938 5.75 -45.890625 C 4.84375 -46.191406 4.195312 -46.707031 3.8125 -47.4375 C 3.4375 -48.164062 3.210938 -48.820312 3.140625 -49.40625 C 3.066406 -49.988281 3.03125 -50.859375 3.03125 -52.015625 C 3.03125 -53.179688 3.066406 -54.039062 3.140625 -54.59375 C 3.210938 -55.144531 3.425781 -55.773438 3.78125 -56.484375 C 4.488281 -57.796875 6.429688 -58.453125 9.609375 -58.453125 C 12.640625 -58.453125 14.535156 -57.796875 15.296875 -56.484375 C 15.648438 -55.828125 15.863281 -55.222656 15.9375 -54.671875 C 16.007812 -54.117188 16.046875 -53.285156 16.046875 -52.171875 L 16.046875 -51.71875 C 16.046875 -50.601562 16.007812 -49.769531 15.9375 -49.21875 C 15.863281 -48.664062 15.625 -48.035156 15.21875 -47.328125 C 14.8125 -46.617188 14.140625 -46.125 13.203125 -45.84375 Z M 5.859375 -39.671875 C 6.796875 -39.972656 8.046875 -40.125 9.609375 -40.125 C 11.179688 -40.125 12.421875 -39.972656 13.328125 -39.671875 C 14.234375 -39.367188 14.875 -38.851562 15.25 -38.125 C 15.632812 -37.394531 15.863281 -36.738281 15.9375 -36.15625 C 16.007812 -35.570312 16.046875 -34.703125 16.046875 -33.546875 L 16.046875 -2.34375 C 16.046875 3.5625 14 8.28125 9.90625 11.8125 C 5.820312 15.34375 1.332031 17.109375 -3.5625 17.109375 C -4.71875 17.109375 -5.570312 17.070312 -6.125 17 C -6.6875 16.925781 -7.320312 16.710938 -8.03125 16.359375 C -9.34375 15.648438 -10 13.804688 -10 10.828125 C -10 7.847656 -9.453125 5.976562 -8.359375 5.21875 C -7.273438 4.46875 -5.8125 4.09375 -3.96875 4.09375 C -2.132812 4.09375 -0.507812 3.585938 0.90625 2.578125 C 2.320312 1.566406 3.03125 -0.25 3.03125 -2.875 L 3.03125 -34.078125 C 3.03125 -35.835938 3.269531 -37.132812 3.75 -37.96875 C 4.226562 -38.800781 4.929688 -39.367188 5.859375 -39.671875 Z M 5.859375 -39.671875 "/></g></g></g><g fill="#000000" fill-opacity="1"><g transform="translate(76.796908, 173.312595)"><g><path d="M 3.328125 -3.5625 C 2.367188 -4.164062 1.890625 -5.125 1.890625 -6.4375 C 1.890625 -7.75 2.847656 -9.742188 4.765625 -12.421875 C 5.328125 -13.273438 6.222656 -13.703125 7.453125 -13.703125 C 8.691406 -13.703125 10.367188 -13.082031 12.484375 -11.84375 C 14.609375 -10.613281 16.53125 -10 18.25 -10 C 21.320312 -10 22.859375 -10.601562 22.859375 -11.8125 C 22.859375 -12.769531 21.171875 -13.476562 17.796875 -13.9375 C 14.617188 -14.382812 11.460938 -15.566406 8.328125 -17.484375 C 6.867188 -18.398438 5.65625 -19.828125 4.6875 -21.765625 C 3.726562 -23.710938 3.25 -26.023438 3.25 -28.703125 C 3.25 -36.671875 8.726562 -40.65625 19.6875 -40.65625 C 23.269531 -40.65625 26.953125 -39.800781 30.734375 -38.09375 C 32.503906 -37.28125 33.390625 -36.265625 33.390625 -35.046875 C 33.390625 -33.835938 32.832031 -32.347656 31.71875 -30.578125 C 30.613281 -28.816406 29.476562 -27.9375 28.3125 -27.9375 C 27.707031 -27.9375 26.582031 -28.316406 24.9375 -29.078125 C 23.300781 -29.835938 21.523438 -30.21875 19.609375 -30.21875 C 16.628906 -30.21875 15.140625 -29.660156 15.140625 -28.546875 C 15.140625 -27.035156 16.859375 -26.050781 20.296875 -25.59375 C 23.628906 -25.238281 26.859375 -24.28125 29.984375 -22.71875 C 31.453125 -22.007812 32.675781 -20.785156 33.65625 -19.046875 C 34.644531 -17.304688 35.140625 -15.125 35.140625 -12.5 C 35.140625 -9.875 34.644531 -7.640625 33.65625 -5.796875 C 32.675781 -3.953125 31.300781 -2.578125 29.53125 -1.671875 C 26.300781 -0.0976562 22.25 0.6875 17.375 0.6875 C 12.507812 0.6875 7.828125 -0.726562 3.328125 -3.5625 Z M 3.328125 -3.5625 "/></g></g></g><g fill="#000000" fill-opacity="1"><g transform="translate(37.500002, 239.564574)"><g><path d="M 28.3125 -5 C 26.394531 -2.476562 23.34375 -1.21875 19.15625 -1.21875 C 14.96875 -1.21875 11.039062 -3.144531 7.375 -7 C 3.71875 -10.863281 1.890625 -15.367188 1.890625 -20.515625 C 1.890625 -25.671875 3.734375 -30.191406 7.421875 -34.078125 C 11.109375 -37.960938 15.144531 -39.90625 19.53125 -39.90625 C 21.25 -39.90625 22.8125 -39.585938 24.21875 -38.953125 C 25.632812 -38.328125 26.609375 -37.75 27.140625 -37.21875 C 27.671875 -36.6875 28.085938 -36.191406 28.390625 -35.734375 C 28.546875 -37.148438 29.0625 -38.222656 29.9375 -38.953125 C 30.820312 -39.691406 32.25 -40.0625 34.21875 -40.0625 C 36.1875 -40.0625 37.625 -39.90625 38.53125 -39.59375 C 39.445312 -39.289062 40.09375 -38.773438 40.46875 -38.046875 C 40.851562 -37.316406 41.082031 -36.671875 41.15625 -36.109375 C 41.226562 -35.554688 41.265625 -34.703125 41.265625 -33.546875 L 41.265625 -2.203125 C 41.265625 3.609375 39.242188 8.289062 35.203125 11.84375 C 31.171875 15.40625 26.628906 17.1875 21.578125 17.1875 C 17.742188 17.1875 14.082031 16.25 10.59375 14.375 C 7.113281 12.507812 5.375 10.820312 5.375 9.3125 C 5.375 7.34375 6.128906 5.601562 7.640625 4.09375 C 8.609375 3.03125 9.351562 2.296875 9.875 1.890625 C 10.40625 1.484375 11.023438 1.28125 11.734375 1.28125 C 12.441406 1.28125 13.175781 1.585938 13.9375 2.203125 C 16.351562 4.066406 18.976562 5 21.8125 5 C 23.726562 5 25.289062 4.238281 26.5 2.71875 C 27.707031 1.207031 28.3125 -0.601562 28.3125 -2.71875 Z M 14.84375 -20.46875 C 14.84375 -18.832031 15.484375 -17.359375 16.765625 -16.046875 C 18.054688 -14.734375 19.625 -14.078125 21.46875 -14.078125 C 23.3125 -14.078125 24.835938 -14.742188 26.046875 -16.078125 C 27.253906 -17.421875 27.859375 -18.882812 27.859375 -20.46875 C 27.859375 -22.0625 27.273438 -23.550781 26.109375 -24.9375 C 24.953125 -26.332031 23.390625 -27.03125 21.421875 -27.03125 C 19.453125 -27.03125 17.863281 -26.347656 16.65625 -24.984375 C 15.445312 -23.617188 14.84375 -22.113281 14.84375 -20.46875 Z M 14.84375 -20.46875 "/></g></g></g><g fill="#000000" fill-opacity="1"><g transform="translate(82.929955, 239.564574)"><g><path d="M 28.921875 -35.65625 C 29.222656 -38.488281 31.21875 -39.90625 34.90625 -39.90625 C 36.875 -39.90625 38.335938 -39.753906 39.296875 -39.453125 C 40.253906 -39.148438 40.921875 -38.617188 41.296875 -37.859375 C 41.679688 -37.097656 41.910156 -36.425781 41.984375 -35.84375 C 42.054688 -35.269531 42.09375 -34.398438 42.09375 -33.234375 L 42.09375 -6.734375 C 42.09375 -5.578125 42.054688 -4.707031 41.984375 -4.125 C 41.910156 -3.539062 41.695312 -2.875 41.34375 -2.125 C 40.632812 -0.8125 38.90625 -0.15625 36.15625 -0.15625 C 33.40625 -0.15625 31.5625 -0.492188 30.625 -1.171875 C 29.695312 -1.859375 29.15625 -2.859375 29 -4.171875 C 27.132812 -1.492188 24.015625 -0.15625 19.640625 -0.15625 C 15.273438 -0.15625 11.222656 -2.144531 7.484375 -6.125 C 3.753906 -10.113281 1.890625 -14.742188 1.890625 -20.015625 C 1.890625 -25.296875 3.769531 -29.914062 7.53125 -33.875 C 11.289062 -37.84375 15.414062 -39.828125 19.90625 -39.828125 C 21.625 -39.828125 23.191406 -39.523438 24.609375 -38.921875 C 26.023438 -38.316406 27.007812 -37.75 27.5625 -37.21875 C 28.113281 -36.6875 28.566406 -36.164062 28.921875 -35.65625 Z M 15.140625 -19.90625 C 15.140625 -18.25 15.796875 -16.75 17.109375 -15.40625 C 18.421875 -14.070312 20.007812 -13.40625 21.875 -13.40625 C 23.75 -13.40625 25.300781 -14.082031 26.53125 -15.4375 C 27.769531 -16.800781 28.390625 -18.300781 28.390625 -19.9375 C 28.390625 -21.582031 27.796875 -23.113281 26.609375 -24.53125 C 25.421875 -25.945312 23.832031 -26.65625 21.84375 -26.65625 C 19.851562 -26.65625 18.238281 -25.945312 17 -24.53125 C 15.757812 -23.113281 15.140625 -21.570312 15.140625 -19.90625 Z M 15.140625 -19.90625 "/></g></g></g><g fill="#000000" fill-opacity="1"><g transform="translate(129.192788, 239.564574)"><g><path d="M 16.046875 -34.609375 C 18.421875 -38.191406 21.273438 -39.984375 24.609375 -39.984375 C 29.753906 -39.984375 33.59375 -37.785156 36.125 -33.390625 C 36.675781 -34.148438 37.34375 -34.945312 38.125 -35.78125 C 38.90625 -36.613281 40.15625 -37.519531 41.875 -38.5 C 43.59375 -39.488281 45.359375 -39.984375 47.171875 -39.984375 C 51.210938 -39.984375 54.59375 -38.429688 57.3125 -35.328125 C 60.039062 -32.222656 61.40625 -27.082031 61.40625 -19.90625 L 61.40625 -6.65625 C 61.40625 -5.5 61.367188 -4.628906 61.296875 -4.046875 C 61.222656 -3.472656 60.984375 -2.804688 60.578125 -2.046875 C 59.921875 -0.679688 57.976562 0 54.75 0 C 51.5625 0 49.617188 -0.707031 48.921875 -2.125 C 48.566406 -2.875 48.347656 -3.539062 48.265625 -4.125 C 48.191406 -4.707031 48.15625 -5.578125 48.15625 -6.734375 L 48.15625 -19.984375 C 48.15625 -24.378906 46.59375 -26.578125 43.46875 -26.578125 C 41.695312 -26.578125 40.492188 -25.992188 39.859375 -24.828125 C 39.234375 -23.671875 38.921875 -22.03125 38.921875 -19.90625 L 38.921875 -6.65625 C 38.921875 -5.445312 38.878906 -4.566406 38.796875 -4.015625 C 38.722656 -3.460938 38.488281 -2.804688 38.09375 -2.046875 C 37.382812 -0.679688 35.414062 0 32.1875 0 C 29 0 27.050781 -0.707031 26.34375 -2.125 C 25.988281 -2.875 25.773438 -3.539062 25.703125 -4.125 C 25.628906 -4.707031 25.59375 -5.578125 25.59375 -6.734375 L 25.59375 -19.984375 C 25.59375 -24.378906 24.023438 -26.578125 20.890625 -26.578125 C 17.867188 -26.578125 16.359375 -24.378906 16.359375 -19.984375 L 16.359375 -6.59375 C 16.359375 -5.425781 16.316406 -4.550781 16.234375 -3.96875 C 16.160156 -3.394531 15.921875 -2.726562 15.515625 -1.96875 C 14.765625 -0.65625 12.796875 0 9.609375 0 C 6.429688 0 4.488281 -0.679688 3.78125 -2.046875 C 3.425781 -2.804688 3.210938 -3.460938 3.140625 -4.015625 C 3.066406 -4.566406 3.03125 -5.445312 3.03125 -6.65625 L 3.03125 -33.3125 C 3.03125 -34.476562 3.066406 -35.347656 3.140625 -35.921875 C 3.210938 -36.503906 3.453125 -37.148438 3.859375 -37.859375 C 4.617188 -39.222656 6.410156 -39.90625 9.234375 -39.90625 C 12.066406 -39.90625 13.910156 -39.445312 14.765625 -38.53125 C 15.617188 -37.625 16.046875 -36.316406 16.046875 -34.609375 Z M 16.046875 -34.609375 "/></g></g></g><g fill="#000000" fill-opacity="1"><g transform="translate(194.763359, 239.564574)"><g><path d="M 41.5 -24.71875 C 41.5 -21.613281 40.726562 -19.316406 39.1875 -17.828125 C 37.644531 -16.335938 35.941406 -15.59375 34.078125 -15.59375 L 16.125 -15.59375 C 16.125 -14.1875 16.957031 -13 18.625 -12.03125 C 20.289062 -11.070312 21.957031 -10.59375 23.625 -10.59375 C 26.550781 -10.59375 28.847656 -10.898438 30.515625 -11.515625 L 31.34375 -11.8125 C 32.5625 -12.363281 33.570312 -12.640625 34.375 -12.640625 C 35.988281 -12.640625 37.378906 -11.503906 38.546875 -9.234375 C 39.203125 -7.867188 39.53125 -6.707031 39.53125 -5.75 C 39.53125 -1.257812 34.148438 0.984375 23.390625 0.984375 C 19.660156 0.984375 16.34375 0.34375 13.4375 -0.9375 C 10.539062 -2.226562 8.28125 -3.9375 6.65625 -6.0625 C 3.476562 -10.144531 1.890625 -14.710938 1.890625 -19.765625 C 1.890625 -26.117188 3.945312 -31.203125 8.0625 -35.015625 C 12.175781 -38.828125 17.3125 -40.734375 23.46875 -40.734375 C 30.488281 -40.734375 35.640625 -38.257812 38.921875 -33.3125 C 40.640625 -30.6875 41.5 -27.820312 41.5 -24.71875 Z M 25.515625 -22.484375 C 27.429688 -22.484375 28.390625 -23.289062 28.390625 -24.90625 C 28.390625 -26.070312 27.945312 -27.003906 27.0625 -27.703125 C 26.1875 -28.410156 24.925781 -28.765625 23.28125 -28.765625 C 21.644531 -28.765625 20.019531 -28.097656 18.40625 -26.765625 C 16.789062 -25.429688 15.984375 -24.003906 15.984375 -22.484375 Z M 25.515625 -22.484375 "/></g></g></g><g fill="#000000" fill-opacity="1"><g transform="translate(239.284712, 239.564574)"><g><path d="M 3.328125 -3.5625 C 2.367188 -4.164062 1.890625 -5.125 1.890625 -6.4375 C 1.890625 -7.75 2.847656 -9.742188 4.765625 -12.421875 C 5.328125 -13.273438 6.222656 -13.703125 7.453125 -13.703125 C 8.691406 -13.703125 10.367188 -13.082031 12.484375 -11.84375 C 14.609375 -10.613281 16.53125 -10 18.25 -10 C 21.320312 -10 22.859375 -10.601562 22.859375 -11.8125 C 22.859375 -12.769531 21.171875 -13.476562 17.796875 -13.9375 C 14.617188 -14.382812 11.460938 -15.566406 8.328125 -17.484375 C 6.867188 -18.398438 5.65625 -19.828125 4.6875 -21.765625 C 3.726562 -23.710938 3.25 -26.023438 3.25 -28.703125 C 3.25 -36.671875 8.726562 -40.65625 19.6875 -40.65625 C 23.269531 -40.65625 26.953125 -39.800781 30.734375 -38.09375 C 32.503906 -37.28125 33.390625 -36.265625 33.390625 -35.046875 C 33.390625 -33.835938 32.832031 -32.347656 31.71875 -30.578125 C 30.613281 -28.816406 29.476562 -27.9375 28.3125 -27.9375 C 27.707031 -27.9375 26.582031 -28.316406 24.9375 -29.078125 C 23.300781 -29.835938 21.523438 -30.21875 19.609375 -30.21875 C 16.628906 -30.21875 15.140625 -29.660156 15.140625 -28.546875 C 15.140625 -27.035156 16.859375 -26.050781 20.296875 -25.59375 C 23.628906 -25.238281 26.859375 -24.28125 29.984375 -22.71875 C 31.453125 -22.007812 32.675781 -20.785156 33.65625 -19.046875 C 34.644531 -17.304688 35.140625 -15.125 35.140625 -12.5 C 35.140625 -9.875 34.644531 -7.640625 33.65625 -5.796875 C 32.675781 -3.953125 31.300781 -2.578125 29.53125 -1.671875 C 26.300781 -0.0976562 22.25 0.6875 17.375 0.6875 C 12.507812 0.6875 7.828125 -0.726562 3.328125 -3.5625 Z M 3.328125 -3.5625 "/></g></g></g><g fill="#000000" fill-opacity="1"><g transform="translate(37.500002, 270.835502)"><g><path d="M 8.34375 -3.5 C 7.921875 -2.589844 6.890625 -1.96875 5.832031 -1.96875 C 4.164062 -1.96875 2.832031 -3.390625 2.832031 -5.148438 C 2.832031 -6.890625 4.164062 -8.328125 5.832031 -8.328125 C 6.875 -8.328125 7.90625 -7.753906 8.328125 -6.828125 L 10.859375 -6.828125 C 10.160156 -8.933594 8.175781 -10.449219 5.832031 -10.449219 C 2.90625 -10.449219 0.53125 -8.070312 0.53125 -5.148438 C 0.53125 -2.226562 2.90625 0.152344 5.832031 0.152344 C 8.175781 0.152344 10.175781 -1.378906 10.871094 -3.5 Z M 8.34375 -3.5 "/></g></g></g><g fill="#000000" fill-opacity="1"><g transform="translate(51.780165, 270.835502)"><g><path d="M 8.859375 -5.164062 C 8.859375 -3.574219 7.421875 -2.121094 5.832031 -2.121094 C 4.238281 -2.121094 2.800781 -3.574219 2.800781 -5.164062 C 2.800781 -6.753906 4.238281 -8.191406 5.832031 -8.191406 C 7.421875 -8.191406 8.859375 -6.753906 8.859375 -5.164062 Z M 11.128906 -5.148438 C 11.128906 -7.996094 8.675781 -10.449219 5.832031 -10.449219 C 2.984375 -10.449219 0.53125 -7.996094 0.53125 -5.148438 C 0.53125 -2.300781 2.984375 0.152344 5.832031 0.152344 C 8.675781 0.152344 11.128906 -2.300781 11.128906 -5.148438 Z M 11.128906 -5.148438 "/></g></g></g><g fill="#000000" fill-opacity="1"><g transform="translate(66.469196, 270.835502)"><g><path d="M 13.75 0 L 11.75 -10.296875 L 9.054688 -10.296875 L 6.921875 -3.074219 L 4.769531 -10.296875 L 2.074219 -10.296875 L 0.0742188 0 L 2.574219 0 L 3.785156 -7.101562 L 5.800781 0 L 8.027344 0 L 10.039062 -7.101562 L 11.25 0 Z M 13.75 0 "/></g></g></g><g fill="#000000" fill-opacity="1"><g transform="translate(83.323729, 270.835502)"><g><path d="M 3.179688 0 L 3.179688 -10.296875 L 0.910156 -10.296875 L 0.910156 0 Z M 3.179688 0 "/></g></g></g><g fill="#000000" fill-opacity="1"><g transform="translate(90.441092, 270.835502)"><g><path d="M 8.996094 0 L 8.996094 -10.296875 L 6.722656 -10.296875 L 6.722656 -3.875 L 3.179688 -10.296875 L 0.910156 -10.296875 L 0.910156 0 L 3.179688 0 L 3.179688 -6.421875 L 6.722656 0 Z M 8.996094 0 "/></g></g></g><g fill="#000000" fill-opacity="1"><g transform="translate(103.373497, 270.835502)"><g><path d="M 6.058594 -8.328125 C 7.058594 -8.328125 8.085938 -7.921875 8.585938 -6.828125 L 11.085938 -6.828125 C 10.375 -8.964844 8.328125 -10.449219 6.058594 -10.449219 C 3.148438 -10.449219 0.757812 -8.054688 0.757812 -5.148438 C 0.757812 -2.242188 3.148438 0.152344 6.058594 0.152344 C 8.996094 0.152344 11.34375 -2.226562 11.34375 -5.148438 L 11.34375 -5.496094 L 6.269531 -5.496094 L 6.269531 -3.785156 L 8.890625 -3.785156 C 8.328125 -2.226562 7.058594 -1.90625 6.058594 -1.90625 C 4.421875 -1.90625 3.058594 -3.378906 3.058594 -5.117188 C 3.058594 -6.859375 4.421875 -8.328125 6.058594 -8.328125 Z M 6.058594 -8.328125 "/></g></g></g><g fill="#000000" fill-opacity="1"><g transform="translate(118.274538, 270.835502)"><g/></g></g><g fill="#000000" fill-opacity="1"><g transform="translate(125.089032, 270.835502)"><g><path d="M 4.90625 -1.605469 C 3.785156 -1.605469 2.816406 -2.164062 2.757812 -3.390625 L 0.453125 -3.390625 C 0.46875 -0.878906 2.542969 0.242188 4.816406 0.242188 C 6.921875 0.242188 9.085938 -0.652344 9.085938 -3.074219 C 9.085938 -6.996094 3.132812 -5.679688 3.132812 -7.511719 C 3.132812 -8.285156 4.027344 -8.585938 4.664062 -8.585938 C 5.800781 -8.585938 6.421875 -8.238281 6.542969 -7.164062 L 8.738281 -7.164062 C 8.660156 -9.511719 6.753906 -10.449219 4.632812 -10.449219 C 2.757812 -10.449219 0.789062 -9.449219 0.789062 -7.328125 C 0.789062 -3.527344 6.738281 -4.816406 6.738281 -2.816406 C 6.738281 -1.894531 5.617188 -1.605469 4.90625 -1.605469 Z M 4.90625 -1.605469 "/></g></g></g><g fill="#000000" fill-opacity="1"><g transform="translate(137.657992, 270.835502)"><g><path d="M 8.859375 -5.164062 C 8.859375 -3.574219 7.421875 -2.121094 5.832031 -2.121094 C 4.238281 -2.121094 2.800781 -3.574219 2.800781 -5.164062 C 2.800781 -6.753906 4.238281 -8.191406 5.832031 -8.191406 C 7.421875 -8.191406 8.859375 -6.753906 8.859375 -5.164062 Z M 11.128906 -5.148438 C 11.128906 -7.996094 8.675781 -10.449219 5.832031 -10.449219 C 2.984375 -10.449219 0.53125 -7.996094 0.53125 -5.148438 C 0.53125 -2.300781 2.984375 0.152344 5.832031 0.152344 C 8.675781 0.152344 11.128906 -2.300781 11.128906 -5.148438 Z M 11.128906 -5.148438 "/></g></g></g><g fill="#000000" fill-opacity="1"><g transform="translate(152.34702, 270.835502)"><g><path d="M 8.859375 -5.164062 C 8.859375 -3.574219 7.421875 -2.121094 5.832031 -2.121094 C 4.238281 -2.121094 2.800781 -3.574219 2.800781 -5.164062 C 2.800781 -6.753906 4.238281 -8.191406 5.832031 -8.191406 C 7.421875 -8.191406 8.859375 -6.753906 8.859375 -5.164062 Z M 11.128906 -5.148438 C 11.128906 -7.996094 8.675781 -10.449219 5.832031 -10.449219 C 2.984375 -10.449219 0.53125 -7.996094 0.53125 -5.148438 C 0.53125 -2.300781 2.984375 0.152344 5.832031 0.152344 C 8.675781 0.152344 11.128906 -2.300781 11.128906 -5.148438 Z M 11.128906 -5.148438 "/></g></g></g><g fill="#000000" fill-opacity="1"><g transform="translate(167.036056, 270.835502)"><g><path d="M 8.996094 0 L 8.996094 -10.296875 L 6.722656 -10.296875 L 6.722656 -3.875 L 3.179688 -10.296875 L 0.910156 -10.296875 L 0.910156 0 L 3.179688 0 L 3.179688 -6.421875 L 6.722656 0 Z M 8.996094 0 "/></g></g></g></svg>