<svg xmlns="http://www.w3.org/2000/svg" xmlns:xlink="http://www.w3.org/1999/xlink" width="500" zoomAndPan="magnify" viewBox="0 0 375 374.999991" height="500" preserveAspectRatio="xMidYMid meet" version="1.0"><defs><g/></defs><g fill="#000000" fill-opacity="1"><g transform="translate(37.500002, 173.312595)"><g><path d="M 13.203125 -45.84375 C 12.273438 -45.570312 11.03125 -45.4375 9.46875 -45.4375 C 7.90625 -45.4375 6.664062 -45.585938 5.75 -45.890625 C 4.84375 -46.191406 4.195312 -46.707031 3.8125 -47.4375 C 3.4375 -48.164062 3.210938 -48.820312 3.140625 -49.40625 C 3.066406 -49.988281 3.03125 -50.859375 3.03125 -52.015625 C 3.03125 -53.179688 3.066406 -54.039062 3.140625 -54.59375 C 3.210938 -55.144531 3.425781 -55.773438 3.78125 -56.484375 C 4.488281 -57.796875 6.429688 -58.453125 9.609375 -58.453125 C 12.640625 -58.453125 14.535156 -57.796875 15.296875 -56.484375 C 15.648438 -55.828125 15.863281 -55.222656 15.9375 -54.671875 C 16.007812 -54.117188 16.046875 -53.285156 16.046875 -52.171875 L 16.046875 -51.71875 C 16.046875 -50.601562 16.007812 -49.769531 15.9375 -49.21875 C 15.863281 -48.664062 15.625 -48.035156 15.21875 -47.328125 C 14.8125 -46.617188 14.140625 -46.125 13.203125 -45.84375 Z M 5.859375 -39.671875 C 6.796875 -39.972656 8.046875 -40.125 9.609375 -40.125 C 11.179688 -40.125 12.421875 -39.972656 13.328125 -39.671875 C 14.234375 -39.367188 14.875 -38.851562 15.25 -38.125 C 15.632812 -37.394531 15.863281 -36.738281 15.9375 -36.15625 C 16.007812 -35.570312 16.046875 -34.703125 16.046875 -33.546875 L 16.046875 -2.34375 C 16.046875 3.5625 14 8.28125 9.90625 11.8125 C 5.820312 15.34375 1.332031 17.109375 -3.5625 17.109375 C -4.71875 17.109375 -5.570312 17.070312 -6.125 17 C -6.6875 16.925781 -7.320312 16.710938 -8.03125 16.359375 C -9.34375 15.648438 -10 13.804688 -10 10.828125 C -10 7.847656 -9.453125 5.976562 -8.359375 5.21875 C -7.273438 4.46875 -5.8125 4.09375 -3.96875 4.09375 C -2.132812 4.09375 -0.507812 3.585938 0.90625 2.578125 C 2.320312 1.566406 3.03125 -0.25 3.03125 -2.875 L 3.03125 -34.078125 C 3.03125 -35.835938 3.269531 -37.132812 3.75 -37.96875 C 4.226562 -38.800781 4.929688 -39.367188 5.859375 -39.671875 Z M 5.859375 -39.671875 "/></g></g></g><g fill="#000000" fill-opacity="1"><g transform="translate(57.716331, 173.312595)"><g><path d="M 28.921875 -35.65625 C 29.222656 -38.488281 31.21875 -39.90625 34.90625 -39.90625 C 36.875 -39.90625 38.335938 -39.753906 39.296875 -39.453125 C 40.253906 -39.148438 40.921875 -38.617188 41.296875 -37.859375 C 41.679688 -37.097656 41.910156 -36.425781 41.984375 -35.84375 C 42.054688 -35.269531 42.09375 -34.398438 42.09375 -33.234375 L 42.09375 -6.734375 C 42.09375 -5.578125 42.054688 -4.707031 41.984375 -4.125 C 41.910156 -3.539062 41.695312 -2.875 41.34375 -2.125 C 40.632812 -0.8125 38.90625 -0.15625 36.15625 -0.15625 C 33.40625 -0.15625 31.5625 -0.492188 30.625 -1.171875 C 29.695312 -1.859375 29.15625 -2.859375 29 -4.171875 C 27.132812 -1.492188 24.015625 -0.15625 19.640625 -0.15625 C 15.273438 -0.15625 11.222656 -2.144531 7.484375 -6.125 C 3.753906 -10.113281 1.890625 -14.742188 1.890625 -20.015625 C 1.890625 -25.296875 3.769531 -29.914062 7.53125 -33.875 C 11.289062 -37.84375 15.414062 -39.828125 19.90625 -39.828125 C 21.625 -39.828125 23.191406 -39.523438 24.609375 -38.921875 C 26.023438 -38.316406 27.007812 -37.75 27.5625 -37.21875 C 28.113281 -36.6875 28.566406 -36.164062 28.921875 -35.65625 Z M 15.140625 -19.90625 C 15.140625 -18.25 15.796875 -16.75 17.109375 -15.40625 C 18.421875 -14.070312 20.007812 -13.40625 21.875 -13.40625 C 23.75 -13.40625 25.300781 -14.082031 26.53125 -15.4375 C 27.769531 -16.800781 28.390625 -18.300781 28.390625 -19.9375 C 28.390625 -21.582031 27.796875 -23.113281 26.609375 -24.53125 C 25.421875 -25.945312 23.832031 -26.65625 21.84375 -26.65625 C 19.851562 -26.65625 18.238281 -25.945312 17 -24.53125 C 15.757812 -23.113281 15.140625 -21.570312 15.140625 -19.90625 Z M 15.140625 -19.90625 "/></g></g></g><g fill="#000000" fill-opacity="1"><g transform="translate(103.979164, 173.312595)"><g><path d="M 15.515625 -19.953125 C 15.515625 -17.804688 16.222656 -16.140625 17.640625 -14.953125 C 19.054688 -13.765625 20.554688 -13.171875 22.140625 -13.171875 C 23.734375 -13.171875 25.222656 -13.640625 26.609375 -14.578125 C 28.003906 -15.515625 29.128906 -15.984375 29.984375 -15.984375 C 31.492188 -15.984375 33.335938 -14.644531 35.515625 -11.96875 C 36.671875 -10.5 37.25 -9.1875 37.25 -8.03125 C 37.25 -6.113281 35.863281 -4.320312 33.09375 -2.65625 C 30.207031 -0.632812 26.671875 0.375 22.484375 0.375 C 17.796875 0.375 13.28125 -1.3125 8.9375 -4.6875 C 6.863281 -6.3125 5.171875 -8.472656 3.859375 -11.171875 C 2.546875 -13.867188 1.890625 -16.84375 1.890625 -20.09375 C 1.890625 -23.351562 2.546875 -26.304688 3.859375 -28.953125 C 5.171875 -31.609375 6.863281 -33.742188 8.9375 -35.359375 C 13.125 -38.691406 17.59375 -40.359375 22.34375 -40.359375 C 24.257812 -40.359375 26.125 -40.09375 27.9375 -39.5625 C 29.757812 -39.03125 31.097656 -38.515625 31.953125 -38.015625 L 33.171875 -37.25 C 34.078125 -36.644531 34.78125 -36.164062 35.28125 -35.8125 C 36.59375 -34.800781 37.25 -33.648438 37.25 -32.359375 C 37.25 -31.078125 36.71875 -29.628906 35.65625 -28.015625 C 33.84375 -25.234375 32.101562 -23.84375 30.4375 -23.84375 C 29.476562 -23.84375 28.113281 -24.398438 26.34375 -25.515625 C 25.4375 -26.367188 24.132812 -26.796875 22.4375 -26.796875 C 20.75 -26.796875 19.171875 -26.191406 17.703125 -24.984375 C 16.242188 -23.773438 15.515625 -22.097656 15.515625 -19.953125 Z M 15.515625 -19.953125 "/></g></g></g><g fill="#000000" fill-opacity="1"><g transform="translate(144.260393, 173.312595)"><g><path d="M 1.890625 -19.90625 C 1.890625 -25.96875 4.007812 -30.96875 8.25 -34.90625 C 12.488281 -38.84375 17.332031 -40.8125 22.78125 -40.8125 C 28.238281 -40.8125 33.0625 -38.851562 37.25 -34.9375 C 41.4375 -31.03125 43.53125 -26.046875 43.53125 -19.984375 C 43.53125 -15.796875 42.445312 -12.070312 40.28125 -8.8125 C 38.113281 -5.5625 35.476562 -3.164062 32.375 -1.625 C 29.269531 -0.0820312 26.050781 0.6875 22.71875 0.6875 C 19.382812 0.6875 16.148438 -0.128906 13.015625 -1.765625 C 9.890625 -3.410156 7.253906 -5.835938 5.109375 -9.046875 C 2.960938 -12.253906 1.890625 -15.875 1.890625 -19.90625 Z M 17.71875 -14.5 C 19.332031 -13.257812 20.972656 -12.640625 22.640625 -12.640625 C 24.304688 -12.640625 25.972656 -13.269531 27.640625 -14.53125 C 29.304688 -15.800781 30.140625 -17.671875 30.140625 -20.140625 C 30.140625 -22.609375 29.351562 -24.445312 27.78125 -25.65625 C 26.21875 -26.875 24.523438 -27.484375 22.703125 -27.484375 C 20.890625 -27.484375 19.203125 -26.851562 17.640625 -25.59375 C 16.078125 -24.332031 15.296875 -22.476562 15.296875 -20.03125 C 15.296875 -17.582031 16.101562 -15.738281 17.71875 -14.5 Z M 17.71875 -14.5 "/></g></g></g><g fill="#000000" fill-opacity="1"><g transform="translate(190.826096, 173.312595)"><g><path d="M 24.90625 -39.828125 C 29.40625 -39.828125 33.535156 -37.832031 37.296875 -33.84375 C 41.054688 -29.851562 42.9375 -25.222656 42.9375 -19.953125 C 42.9375 -14.679688 41.066406 -10.0625 37.328125 -6.09375 C 33.585938 -2.132812 29.570312 -0.15625 25.28125 -0.15625 C 21 -0.15625 17.945312 -1.363281 16.125 -3.78125 C 15.71875 -1.3125 13.546875 -0.078125 9.609375 -0.078125 C 6.429688 -0.078125 4.488281 -0.757812 3.78125 -2.125 C 3.425781 -2.875 3.210938 -3.539062 3.140625 -4.125 C 3.066406 -4.707031 3.03125 -5.578125 3.03125 -6.734375 L 3.03125 -51.9375 C 3.03125 -53.101562 3.066406 -53.972656 3.140625 -54.546875 C 3.210938 -55.128906 3.425781 -55.773438 3.78125 -56.484375 C 4.488281 -57.847656 6.457031 -58.53125 9.6875 -58.53125 C 12.875 -58.53125 14.796875 -57.847656 15.453125 -56.484375 C 15.847656 -55.722656 16.082031 -55.050781 16.15625 -54.46875 C 16.238281 -53.894531 16.28125 -53.03125 16.28125 -51.875 L 16.28125 -36.125 C 18.300781 -38.59375 21.175781 -39.828125 24.90625 -39.828125 Z M 18.28125 -15.375 C 19.519531 -14.007812 21.070312 -13.328125 22.9375 -13.328125 C 24.8125 -13.328125 26.40625 -14.007812 27.71875 -15.375 C 29.03125 -16.738281 29.6875 -18.25 29.6875 -19.90625 C 29.6875 -21.570312 29.078125 -23.097656 27.859375 -24.484375 C 26.648438 -25.878906 25.035156 -26.578125 23.015625 -26.578125 C 20.992188 -26.578125 19.390625 -25.867188 18.203125 -24.453125 C 17.023438 -23.046875 16.4375 -21.519531 16.4375 -19.875 C 16.4375 -18.238281 17.050781 -16.738281 18.28125 -15.375 Z M 18.28125 -15.375 "/></g></g></g><g fill="#000000" fill-opacity="1"><g transform="translate(236.788319, 173.312595)"><g/></g></g><g fill="#000000" fill-opacity="1"><g transform="translate(257.080367, 173.312595)"><g/></g></g><g fill="#000000" fill-opacity="1"><g transform="translate(37.500002, 239.564574)"><g><path d="M 25.140625 -39.75 C 30.179688 -39.75 34.378906 -37.832031 37.734375 -34 C 41.097656 -30.164062 42.78125 -25.46875 42.78125 -19.90625 L 42.78125 -6.59375 C 42.78125 -5.425781 42.738281 -4.550781 42.65625 -3.96875 C 42.582031 -3.394531 42.347656 -2.726562 41.953125 -1.96875 C 41.296875 -0.65625 39.351562 0 36.125 0 C 33.039062 0 31.117188 -0.65625 30.359375 -1.96875 C 29.953125 -2.726562 29.710938 -3.410156 29.640625 -4.015625 C 29.566406 -4.617188 29.53125 -5.523438 29.53125 -6.734375 L 29.53125 -19.984375 C 29.53125 -22.054688 28.945312 -23.671875 27.78125 -24.828125 C 26.625 -25.992188 25.148438 -26.578125 23.359375 -26.578125 C 21.566406 -26.578125 19.988281 -26.035156 18.625 -24.953125 C 17.257812 -23.867188 16.476562 -22.644531 16.28125 -21.28125 L 16.28125 -6.59375 C 16.28125 -5.425781 16.238281 -4.550781 16.15625 -3.96875 C 16.082031 -3.394531 15.847656 -2.726562 15.453125 -1.96875 C 14.796875 -0.65625 12.847656 0 9.609375 0 C 6.429688 0 4.488281 -0.679688 3.78125 -2.046875 C 3.425781 -2.804688 3.210938 -3.460938 3.140625 -4.015625 C 3.066406 -4.566406 3.03125 -5.445312 3.03125 -6.65625 L 3.03125 -51.9375 C 3.03125 -53.101562 3.066406 -53.972656 3.140625 -54.546875 C 3.210938 -55.128906 3.425781 -55.773438 3.78125 -56.484375 C 4.488281 -57.847656 6.457031 -58.53125 9.6875 -58.53125 C 12.875 -58.53125 14.796875 -57.847656 15.453125 -56.484375 C 15.847656 -55.722656 16.082031 -55.050781 16.15625 -54.46875 C 16.238281 -53.894531 16.28125 -53.03125 16.28125 -51.875 L 16.28125 -35.140625 C 18.800781 -38.210938 21.753906 -39.75 25.140625 -39.75 Z M 25.140625 -39.75 "/></g></g></g><g fill="#000000" fill-opacity="1"><g transform="translate(84.444285, 239.564574)"><g><path d="M 28.921875 -35.65625 C 29.222656 -38.488281 31.21875 -39.90625 34.90625 -39.90625 C 36.875 -39.90625 38.335938 -39.753906 39.296875 -39.453125 C 40.253906 -39.148438 40.921875 -38.617188 41.296875 -37.859375 C 41.679688 -37.097656 41.910156 -36.425781 41.984375 -35.84375 C 42.054688 -35.269531 42.09375 -34.398438 42.09375 -33.234375 L 42.09375 -6.734375 C 42.09375 -5.578125 42.054688 -4.707031 41.984375 -4.125 C 41.910156 -3.539062 41.695312 -2.875 41.34375 -2.125 C 40.632812 -0.8125 38.90625 -0.15625 36.15625 -0.15625 C 33.40625 -0.15625 31.5625 -0.492188 30.625 -1.171875 C 29.695312 -1.859375 29.15625 -2.859375 29 -4.171875 C 27.132812 -1.492188 24.015625 -0.15625 19.640625 -0.15625 C 15.273438 -0.15625 11.222656 -2.144531 7.484375 -6.125 C 3.753906 -10.113281 1.890625 -14.742188 1.890625 -20.015625 C 1.890625 -25.296875 3.769531 -29.914062 7.53125 -33.875 C 11.289062 -37.84375 15.414062 -39.828125 19.90625 -39.828125 C 21.625 -39.828125 23.191406 -39.523438 24.609375 -38.921875 C 26.023438 -38.316406 27.007812 -37.75 27.5625 -37.21875 C 28.113281 -36.6875 28.566406 -36.164062 28.921875 -35.65625 Z M 15.140625 -19.90625 C 15.140625 -18.25 15.796875 -16.75 17.109375 -15.40625 C 18.421875 -14.070312 20.007812 -13.40625 21.875 -13.40625 C 23.75 -13.40625 25.300781 -14.082031 26.53125 -15.4375 C 27.769531 -16.800781 28.390625 -18.300781 28.390625 -19.9375 C 28.390625 -21.582031 27.796875 -23.113281 26.609375 -24.53125 C 25.421875 -25.945312 23.832031 -26.65625 21.84375 -26.65625 C 19.851562 -26.65625 18.238281 -25.945312 17 -24.53125 C 15.757812 -23.113281 15.140625 -21.570312 15.140625 -19.90625 Z M 15.140625 -19.90625 "/></g></g></g><g fill="#000000" fill-opacity="1"><g transform="translate(130.707117, 239.564574)"><g><path d="M 30.140625 -39.453125 C 31.097656 -39.148438 31.890625 -38.628906 32.515625 -37.890625 C 33.148438 -37.160156 33.46875 -35.988281 33.46875 -34.375 C 33.46875 -32.757812 32.988281 -30.992188 32.03125 -29.078125 C 31.070312 -27.160156 29.679688 -26.203125 27.859375 -26.203125 C 26.953125 -26.203125 26.082031 -26.398438 25.25 -26.796875 C 24.414062 -27.203125 23.316406 -27.40625 21.953125 -27.40625 C 20.585938 -27.40625 19.3125 -26.925781 18.125 -25.96875 C 16.945312 -25.007812 16.359375 -23.847656 16.359375 -22.484375 L 16.359375 -6.59375 C 16.359375 -5.425781 16.316406 -4.550781 16.234375 -3.96875 C 16.160156 -3.394531 15.921875 -2.726562 15.515625 -1.96875 C 14.765625 -0.65625 12.796875 0 9.609375 0 C 7.191406 0 5.453125 -0.425781 4.390625 -1.28125 C 3.585938 -1.988281 3.132812 -3.078125 3.03125 -4.546875 C 3.03125 -5.046875 3.03125 -5.773438 3.03125 -6.734375 L 3.03125 -33.3125 C 3.03125 -34.476562 3.066406 -35.347656 3.140625 -35.921875 C 3.210938 -36.503906 3.425781 -37.148438 3.78125 -37.859375 C 4.488281 -39.222656 6.457031 -39.90625 9.6875 -39.90625 C 12.71875 -39.90625 14.613281 -39.320312 15.375 -38.15625 C 15.925781 -37.351562 16.203125 -36.519531 16.203125 -35.65625 C 16.453125 -36.007812 16.816406 -36.4375 17.296875 -36.9375 C 17.773438 -37.445312 18.796875 -38.128906 20.359375 -38.984375 C 21.929688 -39.847656 23.3125 -40.28125 24.5 -40.28125 C 25.6875 -40.28125 26.679688 -40.21875 27.484375 -40.09375 C 28.296875 -39.96875 29.179688 -39.753906 30.140625 -39.453125 Z M 30.140625 -39.453125 "/></g></g></g><g fill="#000000" fill-opacity="1"><g transform="translate(166.445344, 239.564574)"><g><path d="M 30.140625 -39.453125 C 31.097656 -39.148438 31.890625 -38.628906 32.515625 -37.890625 C 33.148438 -37.160156 33.46875 -35.988281 33.46875 -34.375 C 33.46875 -32.757812 32.988281 -30.992188 32.03125 -29.078125 C 31.070312 -27.160156 29.679688 -26.203125 27.859375 -26.203125 C 26.953125 -26.203125 26.082031 -26.398438 25.25 -26.796875 C 24.414062 -27.203125 23.316406 -27.40625 21.953125 -27.40625 C 20.585938 -27.40625 19.3125 -26.925781 18.125 -25.96875 C 16.945312 -25.007812 16.359375 -23.847656 16.359375 -22.484375 L 16.359375 -6.59375 C 16.359375 -5.425781 16.316406 -4.550781 16.234375 -3.96875 C 16.160156 -3.394531 15.921875 -2.726562 15.515625 -1.96875 C 14.765625 -0.65625 12.796875 0 9.609375 0 C 7.191406 0 5.453125 -0.425781 4.390625 -1.28125 C 3.585938 -1.988281 3.132812 -3.078125 3.03125 -4.546875 C 3.03125 -5.046875 3.03125 -5.773438 3.03125 -6.734375 L 3.03125 -33.3125 C 3.03125 -34.476562 3.066406 -35.347656 3.140625 -35.921875 C 3.210938 -36.503906 3.425781 -37.148438 3.78125 -37.859375 C 4.488281 -39.222656 6.457031 -39.90625 9.6875 -39.90625 C 12.71875 -39.90625 14.613281 -39.320312 15.375 -38.15625 C 15.925781 -37.351562 16.203125 -36.519531 16.203125 -35.65625 C 16.453125 -36.007812 16.816406 -36.4375 17.296875 -36.9375 C 17.773438 -37.445312 18.796875 -38.128906 20.359375 -38.984375 C 21.929688 -39.847656 23.3125 -40.28125 24.5 -40.28125 C 25.6875 -40.28125 26.679688 -40.21875 27.484375 -40.09375 C 28.296875 -39.96875 29.179688 -39.753906 30.140625 -39.453125 Z M 30.140625 -39.453125 "/></g></g></g><g fill="#000000" fill-opacity="1"><g transform="translate(202.183578, 239.564574)"><g><path d="M 3.03125 -33.234375 C 3.03125 -34.398438 3.066406 -35.269531 3.140625 -35.84375 C 3.210938 -36.425781 3.425781 -37.097656 3.78125 -37.859375 C 4.488281 -39.171875 6.457031 -39.828125 9.6875 -39.828125 C 12.113281 -39.828125 13.832031 -39.398438 14.84375 -38.546875 C 15.695312 -37.835938 16.148438 -36.75 16.203125 -35.28125 C 16.253906 -34.78125 16.28125 -34.050781 16.28125 -33.09375 L 16.28125 -6.59375 C 16.28125 -5.425781 16.238281 -4.550781 16.15625 -3.96875 C 16.082031 -3.394531 15.847656 -2.726562 15.453125 -1.96875 C 14.796875 -0.65625 12.847656 0 9.609375 0 C 6.429688 0 4.488281 -0.679688 3.78125 -2.046875 C 3.425781 -2.804688 3.210938 -3.460938 3.140625 -4.015625 C 3.066406 -4.566406 3.03125 -5.445312 3.03125 -6.65625 Z M 15.484375 -47.28125 C 15.109375 -46.550781 14.441406 -46.035156 13.484375 -45.734375 C 12.523438 -45.429688 11.25 -45.28125 9.65625 -45.28125 C 8.0625 -45.28125 6.785156 -45.429688 5.828125 -45.734375 C 4.867188 -46.035156 4.195312 -46.5625 3.8125 -47.3125 C 3.4375 -48.070312 3.210938 -48.742188 3.140625 -49.328125 C 3.066406 -49.910156 3.03125 -50.78125 3.03125 -51.9375 C 3.03125 -53.101562 3.066406 -53.972656 3.140625 -54.546875 C 3.210938 -55.128906 3.425781 -55.773438 3.78125 -56.484375 C 4.488281 -57.847656 6.457031 -58.53125 9.6875 -58.53125 C 12.875 -58.53125 14.796875 -57.847656 15.453125 -56.484375 C 15.847656 -55.722656 16.082031 -55.050781 16.15625 -54.46875 C 16.238281 -53.894531 16.28125 -53.023438 16.28125 -51.859375 C 16.28125 -50.703125 16.238281 -49.832031 16.15625 -49.25 C 16.082031 -48.675781 15.859375 -48.019531 15.484375 -47.28125 Z M 15.484375 -47.28125 "/></g></g></g><g fill="#000000" fill-opacity="1"><g transform="translate(222.627051, 239.564574)"><g><path d="M 3.328125 -3.5625 C 2.367188 -4.164062 1.890625 -5.125 1.890625 -6.4375 C 1.890625 -7.75 2.847656 -9.742188 4.765625 -12.421875 C 5.328125 -13.273438 6.222656 -13.703125 7.453125 -13.703125 C 8.691406 -13.703125 10.367188 -13.082031 12.484375 -11.84375 C 14.609375 -10.613281 16.53125 -10 18.25 -10 C 21.320312 -10 22.859375 -10.601562 22.859375 -11.8125 C 22.859375 -12.769531 21.171875 -13.476562 17.796875 -13.9375 C 14.617188 -14.382812 11.460938 -15.566406 8.328125 -17.484375 C 6.867188 -18.398438 5.65625 -19.828125 4.6875 -21.765625 C 3.726562 -23.710938 3.25 -26.023438 3.25 -28.703125 C 3.25 -36.671875 8.726562 -40.65625 19.6875 -40.65625 C 23.269531 -40.65625 26.953125 -39.800781 30.734375 -38.09375 C 32.503906 -37.28125 33.390625 -36.265625 33.390625 -35.046875 C 33.390625 -33.835938 32.832031 -32.347656 31.71875 -30.578125 C 30.613281 -28.816406 29.476562 -27.9375 28.3125 -27.9375 C 27.707031 -27.9375 26.582031 -28.316406 24.9375 -29.078125 C 23.300781 -29.835938 21.523438 -30.21875 19.609375 -30.21875 C 16.628906 -30.21875 15.140625 -29.660156 15.140625 -28.546875 C 15.140625 -27.035156 16.859375 -26.050781 20.296875 -25.59375 C 23.628906 -25.238281 26.859375 -24.28125 29.984375 -22.71875 C 31.453125 -22.007812 32.675781 -20.785156 33.65625 -19.046875 C 34.644531 -17.304688 35.140625 -15.125 35.140625 -12.5 C 35.140625 -9.875 34.644531 -7.640625 33.65625 -5.796875 C 32.675781 -3.953125 31.300781 -2.578125 29.53125 -1.671875 C 26.300781 -0.0976562 22.25 0.6875 17.375 0.6875 C 12.507812 0.6875 7.828125 -0.726562 3.328125 -3.5625 Z M 3.328125 -3.5625 "/></g></g></g><g fill="#000000" fill-opacity="1"><g transform="translate(37.500002, 270.835502)"><g><path d="M 3.148438 -2.089844 L 3.148438 -8.191406 L 3.832031 -8.191406 C 5.585938 -8.191406 6.769531 -6.859375 6.769531 -5.148438 C 6.769531 -3.4375 5.574219 -2.089844 3.832031 -2.089844 Z M 0.910156 -10.296875 L 0.910156 0 L 3.96875 0 C 6.890625 0 9.085938 -2.242188 9.085938 -5.148438 C 9.085938 -8.054688 6.875 -10.296875 3.96875 -10.296875 Z M 0.910156 -10.296875 "/></g></g></g><g fill="#000000" fill-opacity="1"><g transform="translate(50.144683, 270.835502)"><g><path d="M 6.875 -2.058594 L 3.179688 -2.058594 L 3.179688 -4.132812 L 6.722656 -4.132812 L 6.722656 -6.195312 L 3.179688 -6.195312 L 3.179688 -8.238281 L 6.875 -8.238281 L 6.875 -10.296875 L 0.910156 -10.296875 L 0.910156 0 L 6.875 0 Z M 6.875 -2.058594 "/></g></g></g><g fill="#000000" fill-opacity="1"><g transform="translate(60.957019, 270.835502)"><g><path d="M 10.359375 -10.296875 L 7.90625 -10.296875 L 5.769531 -4.511719 L 5.210938 -2.890625 L 4.648438 -4.511719 L 2.527344 -10.296875 L 0.0742188 -10.296875 L 4.238281 0 L 6.195312 0 Z M 10.359375 -10.296875 "/></g></g></g><g fill="#000000" fill-opacity="1"><g transform="translate(74.419444, 270.835502)"><g><path d="M 6.875 -2.058594 L 3.179688 -2.058594 L 3.179688 -4.132812 L 6.722656 -4.132812 L 6.722656 -6.195312 L 3.179688 -6.195312 L 3.179688 -8.238281 L 6.875 -8.238281 L 6.875 -10.296875 L 0.910156 -10.296875 L 0.910156 0 L 6.875 0 Z M 6.875 -2.058594 "/></g></g></g><g fill="#000000" fill-opacity="1"><g transform="translate(85.231781, 270.835502)"><g><path d="M 0.910156 0 L 6.875 0 L 6.875 -2.058594 L 3.179688 -2.058594 L 3.179688 -10.296875 L 0.910156 -10.296875 Z M 0.910156 0 "/></g></g></g><g fill="#000000" fill-opacity="1"><g transform="translate(95.665534, 270.835502)"><g><path d="M 8.859375 -5.164062 C 8.859375 -3.574219 7.421875 -2.121094 5.832031 -2.121094 C 4.238281 -2.121094 2.800781 -3.574219 2.800781 -5.164062 C 2.800781 -6.753906 4.238281 -8.191406 5.832031 -8.191406 C 7.421875 -8.191406 8.859375 -6.753906 8.859375 -5.164062 Z M 11.128906 -5.148438 C 11.128906 -7.996094 8.675781 -10.449219 5.832031 -10.449219 C 2.984375 -10.449219 0.53125 -7.996094 0.53125 -5.148438 C 0.53125 -2.300781 2.984375 0.152344 5.832031 0.152344 C 8.675781 0.152344 11.128906 -2.300781 11.128906 -5.148438 Z M 11.128906 -5.148438 "/></g></g></g><g fill="#000000" fill-opacity="1"><g transform="translate(110.354562, 270.835502)"><g><path d="M 3.179688 -3.679688 L 4.769531 -3.679688 C 6.4375 -3.679688 7.921875 -4.90625 7.921875 -6.996094 C 7.921875 -8.949219 6.4375 -10.296875 4.769531 -10.296875 L 0.910156 -10.296875 L 0.910156 0 L 3.179688 0 Z M 4.390625 -8.511719 C 5.058594 -8.511719 5.753906 -7.933594 5.753906 -6.996094 C 5.753906 -6.011719 5.058594 -5.464844 4.390625 -5.464844 L 3.179688 -5.464844 L 3.179688 -8.511719 Z M 4.390625 -8.511719 "/></g></g></g><g fill="#000000" fill-opacity="1"><g transform="translate(121.530338, 270.835502)"><g><path d="M 6.875 -2.058594 L 3.179688 -2.058594 L 3.179688 -4.132812 L 6.722656 -4.132812 L 6.722656 -6.195312 L 3.179688 -6.195312 L 3.179688 -8.238281 L 6.875 -8.238281 L 6.875 -10.296875 L 0.910156 -10.296875 L 0.910156 0 L 6.875 0 Z M 6.875 -2.058594 "/></g></g></g><g fill="#000000" fill-opacity="1"><g transform="translate(132.342671, 270.835502)"><g><path d="M 3.179688 -3.679688 L 3.195312 -3.679688 L 5.648438 0 L 8.527344 0 L 5.574219 -3.785156 C 6.875 -4.105469 7.921875 -5.253906 7.921875 -6.996094 C 7.921875 -8.949219 6.4375 -10.296875 4.769531 -10.296875 L 0.910156 -10.296875 L 0.910156 0 L 3.179688 0 Z M 4.390625 -8.511719 C 5.058594 -8.511719 5.753906 -7.933594 5.753906 -6.996094 C 5.753906 -6.011719 5.058594 -5.464844 4.390625 -5.464844 L 3.179688 -5.464844 L 3.179688 -8.511719 Z M 4.390625 -8.511719 "/></g></g></g></svg>