<svg xmlns="http://www.w3.org/2000/svg" xmlns:xlink="http://www.w3.org/1999/xlink" width="500" zoomAndPan="magnify" viewBox="0 0 375 374.999991" height="500" preserveAspectRatio="xMidYMid meet" version="1.0"><defs><g/><clipPath id="8e3f90d889"><path d="M 37.5 37.5 L 346.5 37.5 L 346.5 346.5 L 37.5 346.5 Z M 37.5 37.5 " clip-rule="nonzero"/></clipPath></defs><g clip-path="url(#8e3f90d889)"><path fill="#d9d9d9" d="M 191.4375 37.5 C 106.515625 37.5 37.5 106.515625 37.5 191.4375 C 37.5 276.359375 106.515625 345.375 191.4375 345.375 C 205.84375 345.375 219.917969 343.296875 233.421875 339.472656 L 233.421875 312.464844 C 222.953125 322.578125 211.089844 329.058594 198.433594 330.835938 L 198.433594 275.402344 L 233.421875 275.402344 L 233.421875 261.410156 L 198.433594 261.410156 L 198.433594 198.433594 L 233.421875 198.433594 L 233.421875 184.441406 L 198.433594 184.441406 L 198.433594 121.464844 L 264.003906 121.464844 C 270.265625 139.53125 274.226562 160.085938 275.101562 182.0625 L 282.402344 188.921875 L 289.316406 195.375 L 292.570312 198.433594 L 331.136719 198.433594 C 330.589844 209.121094 328.894531 219.617188 325.996094 229.785156 L 337.3125 240.390625 C 342.585938 224.730469 345.375 208.273438 345.375 191.4375 C 345.375 106.515625 276.359375 37.5 191.4375 37.5 Z M 184.441406 52.066406 L 184.441406 107.472656 L 124.554688 107.472656 C 127.179688 101.703125 129.964844 96.210938 133.054688 91.234375 C 147.023438 68.6875 165.035156 54.800781 184.441406 52.066406 Z M 198.433594 52.066406 C 222.953125 55.457031 244.464844 76.449219 258.457031 107.472656 L 198.433594 107.472656 Z M 243.917969 61.660156 C 267.695312 71.28125 288.140625 87.273438 303.308594 107.472656 L 273.4375 107.472656 C 265.78125 89.078125 255.695312 73.46875 243.917969 61.660156 Z M 138.441406 61.933594 C 132.125 68.304688 126.277344 75.601562 121.164062 83.855469 C 116.683594 91.097656 112.691406 99.027344 109.222656 107.472656 L 79.621094 107.472656 C 94.679688 87.4375 114.90625 71.554688 138.441406 61.933594 Z M 70.328125 121.464844 L 104.109375 121.464844 C 97.960938 140.542969 94.324219 161.863281 93.695312 184.441406 L 51.660156 184.441406 C 52.804688 161.535156 59.503906 140.160156 70.328125 121.464844 Z M 118.925781 121.464844 L 184.441406 121.464844 L 184.441406 184.441406 L 107.691406 184.441406 C 108.375 161.535156 112.363281 140.105469 118.925781 121.464844 Z M 278.574219 121.464844 L 312.65625 121.464844 C 323.453125 140.160156 330.070312 161.5625 331.191406 184.441406 L 289.179688 184.441406 C 288.523438 161.835938 284.804688 140.515625 278.574219 121.464844 Z M 51.660156 198.433594 L 93.695312 198.433594 C 94.324219 221.011719 97.960938 242.332031 104.109375 261.410156 L 70.328125 261.410156 C 59.503906 242.714844 52.804688 221.339844 51.660156 198.433594 Z M 107.691406 198.433594 L 184.441406 198.433594 L 184.441406 261.410156 L 118.925781 261.410156 C 112.363281 242.769531 108.375 221.339844 107.691406 198.433594 Z M 261.082031 198.433594 C 257.363281 198.625 254.410156 201.6875 254.410156 205.433594 L 254.410156 340.128906 C 254.410156 342.96875 256.105469 345.511719 258.730469 346.578125 C 261.355469 347.671875 264.359375 347.070312 266.355469 345.074219 L 287.429688 323.972656 L 305.003906 362.292969 C 306.617188 365.792969 310.773438 367.324219 314.296875 365.710938 L 341.300781 353.355469 C 344.800781 351.742188 346.332031 347.589844 344.71875 344.0625 L 326.488281 304.265625 L 359.371094 304.265625 C 362.238281 304.265625 364.835938 302.515625 365.875 299.839844 C 366.941406 297.160156 366.257812 294.125 364.152344 292.160156 L 266.191406 200.320312 C 264.796875 199.035156 262.96875 198.351562 261.082031 198.433594 Z M 268.40625 221.585938 L 341.65625 290.273438 L 316.511719 290.273438 C 315.417969 290.273438 314.351562 290.519531 313.367188 291.011719 L 312.628906 291.394531 C 309.269531 293.085938 307.820312 297.132812 309.40625 300.550781 L 329.085938 343.515625 L 314.789062 350.078125 L 295.957031 308.996094 C 295.027344 306.917969 293.085938 305.441406 290.847656 305.03125 C 288.578125 304.621094 286.28125 305.359375 284.667969 307 L 268.40625 323.234375 Z M 79.621094 275.402344 L 109.222656 275.402344 C 112.691406 283.847656 116.683594 291.777344 121.164062 299.019531 C 126.277344 307.273438 132.125 314.570312 138.441406 320.941406 C 114.90625 311.320312 94.679688 295.4375 79.621094 275.402344 Z M 124.554688 275.402344 L 184.441406 275.402344 L 184.441406 330.808594 C 165.035156 328.074219 147.023438 314.1875 133.054688 291.667969 C 129.964844 286.664062 127.179688 281.171875 124.554688 275.402344 Z M 124.554688 275.402344 " fill-opacity="1" fill-rule="nonzero"/></g><g fill="#000000" fill-opacity="1"><g transform="translate(37.500002, 140.186614)"><g><path d="M 16.046875 -34.609375 C 18.421875 -38.191406 21.273438 -39.984375 24.609375 -39.984375 C 29.753906 -39.984375 33.59375 -37.785156 36.125 -33.390625 C 36.675781 -34.148438 37.34375 -34.945312 38.125 -35.78125 C 38.90625 -36.613281 40.15625 -37.519531 41.875 -38.5 C 43.59375 -39.488281 45.359375 -39.984375 47.171875 -39.984375 C 51.210938 -39.984375 54.59375 -38.429688 57.3125 -35.328125 C 60.039062 -32.222656 61.40625 -27.082031 61.40625 -19.90625 L 61.40625 -6.65625 C 61.40625 -5.5 61.367188 -4.628906 61.296875 -4.046875 C 61.222656 -3.472656 60.984375 -2.804688 60.578125 -2.046875 C 59.921875 -0.679688 57.976562 0 54.75 0 C 51.5625 0 49.617188 -0.707031 48.921875 -2.125 C 48.566406 -2.875 48.347656 -3.539062 48.265625 -4.125 C 48.191406 -4.707031 48.15625 -5.578125 48.15625 -6.734375 L 48.15625 -19.984375 C 48.15625 -24.378906 46.59375 -26.578125 43.46875 -26.578125 C 41.695312 -26.578125 40.492188 -25.992188 39.859375 -24.828125 C 39.234375 -23.671875 38.921875 -22.03125 38.921875 -19.90625 L 38.921875 -6.65625 C 38.921875 -5.445312 38.878906 -4.566406 38.796875 -4.015625 C 38.722656 -3.460938 38.488281 -2.804688 38.09375 -2.046875 C 37.382812 -0.679688 35.414062 0 32.1875 0 C 29 0 27.050781 -0.707031 26.34375 -2.125 C 25.988281 -2.875 25.773438 -3.539062 25.703125 -4.125 C 25.628906 -4.707031 25.59375 -5.578125 25.59375 -6.734375 L 25.59375 -19.984375 C 25.59375 -24.378906 24.023438 -26.578125 20.890625 -26.578125 C 17.867188 -26.578125 16.359375 -24.378906 16.359375 -19.984375 L 16.359375 -6.59375 C 16.359375 -5.425781 16.316406 -4.550781 16.234375 -3.96875 C 16.160156 -3.394531 15.921875 -2.726562 15.515625 -1.96875 C 14.765625 -0.65625 12.796875 0 9.609375 0 C 6.429688 0 4.488281 -0.679688 3.78125 -2.046875 C 3.425781 -2.804688 3.210938 -3.460938 3.140625 -4.015625 C 3.066406 -4.566406 3.03125 -5.445312 3.03125 -6.65625 L 3.03125 -33.3125 C 3.03125 -34.476562 3.066406 -35.347656 3.140625 -35.921875 C 3.210938 -36.503906 3.453125 -37.148438 3.859375 -37.859375 C 4.617188 -39.222656 6.410156 -39.90625 9.234375 -39.90625 C 12.066406 -39.90625 13.910156 -39.445312 14.765625 -38.53125 C 15.617188 -37.625 16.046875 -36.316406 16.046875 -34.609375 Z M 16.046875 -34.609375 "/></g></g></g><g fill="#000000" fill-opacity="1"><g transform="translate(103.070567, 140.186614)"><g><path d="M 1.890625 -19.90625 C 1.890625 -25.96875 4.007812 -30.96875 8.25 -34.90625 C 12.488281 -38.84375 17.332031 -40.8125 22.78125 -40.8125 C 28.238281 -40.8125 33.0625 -38.851562 37.25 -34.9375 C 41.4375 -31.03125 43.53125 -26.046875 43.53125 -19.984375 C 43.53125 -15.796875 42.445312 -12.070312 40.28125 -8.8125 C 38.113281 -5.5625 35.476562 -3.164062 32.375 -1.625 C 29.269531 -0.0820312 26.050781 0.6875 22.71875 0.6875 C 19.382812 0.6875 16.148438 -0.128906 13.015625 -1.765625 C 9.890625 -3.410156 7.253906 -5.835938 5.109375 -9.046875 C 2.960938 -12.253906 1.890625 -15.875 1.890625 -19.90625 Z M 17.71875 -14.5 C 19.332031 -13.257812 20.972656 -12.640625 22.640625 -12.640625 C 24.304688 -12.640625 25.972656 -13.269531 27.640625 -14.53125 C 29.304688 -15.800781 30.140625 -17.671875 30.140625 -20.140625 C 30.140625 -22.609375 29.351562 -24.445312 27.78125 -25.65625 C 26.21875 -26.875 24.523438 -27.484375 22.703125 -27.484375 C 20.890625 -27.484375 19.203125 -26.851562 17.640625 -25.59375 C 16.078125 -24.332031 15.296875 -22.476562 15.296875 -20.03125 C 15.296875 -17.582031 16.101562 -15.738281 17.71875 -14.5 Z M 17.71875 -14.5 "/></g></g></g><g fill="#000000" fill-opacity="1"><g transform="translate(149.636262, 140.186614)"><g><path d="M 43.234375 -39 C 45.859375 -37.425781 47.171875 -35.757812 47.171875 -34 C 47.171875 -32.988281 46.664062 -31.597656 45.65625 -29.828125 L 29.984375 -2.953125 C 29.484375 -2.097656 28.675781 -1.328125 27.5625 -0.640625 C 26.445312 0.0351562 25.347656 0.375 24.265625 0.375 C 23.179688 0.375 22.144531 0.109375 21.15625 -0.421875 C 20.175781 -0.953125 19.484375 -1.492188 19.078125 -2.046875 L 18.40625 -2.875 L 2.65625 -29.828125 C 1.644531 -31.492188 1.140625 -32.859375 1.140625 -33.921875 C 1.140625 -35.734375 2.453125 -37.425781 5.078125 -39 C 6.992188 -40.101562 8.503906 -40.65625 9.609375 -40.65625 C 10.722656 -40.65625 11.59375 -40.3125 12.21875 -39.625 C 12.851562 -38.945312 13.523438 -37.929688 14.234375 -36.578125 L 24.15625 -17.484375 L 34.078125 -36.578125 C 34.628906 -37.535156 35.039062 -38.226562 35.3125 -38.65625 C 35.59375 -39.082031 36.035156 -39.507812 36.640625 -39.9375 C 37.253906 -40.363281 38.0625 -40.578125 39.0625 -40.578125 C 40.070312 -40.578125 41.460938 -40.050781 43.234375 -39 Z M 43.234375 -39 "/></g></g></g><g fill="#000000" fill-opacity="1"><g transform="translate(199.079187, 140.186614)"><g><path d="M 3.03125 -33.234375 C 3.03125 -34.398438 3.066406 -35.269531 3.140625 -35.84375 C 3.210938 -36.425781 3.425781 -37.097656 3.78125 -37.859375 C 4.488281 -39.171875 6.457031 -39.828125 9.6875 -39.828125 C 12.113281 -39.828125 13.832031 -39.398438 14.84375 -38.546875 C 15.695312 -37.835938 16.148438 -36.75 16.203125 -35.28125 C 16.253906 -34.78125 16.28125 -34.050781 16.28125 -33.09375 L 16.28125 -6.59375 C 16.28125 -5.425781 16.238281 -4.550781 16.15625 -3.96875 C 16.082031 -3.394531 15.847656 -2.726562 15.453125 -1.96875 C 14.796875 -0.65625 12.847656 0 9.609375 0 C 6.429688 0 4.488281 -0.679688 3.78125 -2.046875 C 3.425781 -2.804688 3.210938 -3.460938 3.140625 -4.015625 C 3.066406 -4.566406 3.03125 -5.445312 3.03125 -6.65625 Z M 15.484375 -47.28125 C 15.109375 -46.550781 14.441406 -46.035156 13.484375 -45.734375 C 12.523438 -45.429688 11.25 -45.28125 9.65625 -45.28125 C 8.0625 -45.28125 6.785156 -45.429688 5.828125 -45.734375 C 4.867188 -46.035156 4.195312 -46.5625 3.8125 -47.3125 C 3.4375 -48.070312 3.210938 -48.742188 3.140625 -49.328125 C 3.066406 -49.910156 3.03125 -50.78125 3.03125 -51.9375 C 3.03125 -53.101562 3.066406 -53.972656 3.140625 -54.546875 C 3.210938 -55.128906 3.425781 -55.773438 3.78125 -56.484375 C 4.488281 -57.847656 6.457031 -58.53125 9.6875 -58.53125 C 12.875 -58.53125 14.796875 -57.847656 15.453125 -56.484375 C 15.847656 -55.722656 16.082031 -55.050781 16.15625 -54.46875 C 16.238281 -53.894531 16.28125 -53.023438 16.28125 -51.859375 C 16.28125 -50.703125 16.238281 -49.832031 16.15625 -49.25 C 16.082031 -48.675781 15.859375 -48.019531 15.484375 -47.28125 Z M 15.484375 -47.28125 "/></g></g></g><g fill="#000000" fill-opacity="1"><g transform="translate(219.52266, 140.186614)"><g><path d="M 41.5 -24.71875 C 41.5 -21.613281 40.726562 -19.316406 39.1875 -17.828125 C 37.644531 -16.335938 35.941406 -15.59375 34.078125 -15.59375 L 16.125 -15.59375 C 16.125 -14.1875 16.957031 -13 18.625 -12.03125 C 20.289062 -11.070312 21.957031 -10.59375 23.625 -10.59375 C 26.550781 -10.59375 28.847656 -10.898438 30.515625 -11.515625 L 31.34375 -11.8125 C 32.5625 -12.363281 33.570312 -12.640625 34.375 -12.640625 C 35.988281 -12.640625 37.378906 -11.503906 38.546875 -9.234375 C 39.203125 -7.867188 39.53125 -6.707031 39.53125 -5.75 C 39.53125 -1.257812 34.148438 0.984375 23.390625 0.984375 C 19.660156 0.984375 16.34375 0.34375 13.4375 -0.9375 C 10.539062 -2.226562 8.28125 -3.9375 6.65625 -6.0625 C 3.476562 -10.144531 1.890625 -14.710938 1.890625 -19.765625 C 1.890625 -26.117188 3.945312 -31.203125 8.0625 -35.015625 C 12.175781 -38.828125 17.3125 -40.734375 23.46875 -40.734375 C 30.488281 -40.734375 35.640625 -38.257812 38.921875 -33.3125 C 40.640625 -30.6875 41.5 -27.820312 41.5 -24.71875 Z M 25.515625 -22.484375 C 27.429688 -22.484375 28.390625 -23.289062 28.390625 -24.90625 C 28.390625 -26.070312 27.945312 -27.003906 27.0625 -27.703125 C 26.1875 -28.410156 24.925781 -28.765625 23.28125 -28.765625 C 21.644531 -28.765625 20.019531 -28.097656 18.40625 -26.765625 C 16.789062 -25.429688 15.984375 -24.003906 15.984375 -22.484375 Z M 25.515625 -22.484375 "/></g></g></g><g fill="#000000" fill-opacity="1"><g transform="translate(37.500002, 206.438593)"><g><path d="M 29.796875 -56.515625 C 30.171875 -57.253906 30.835938 -57.773438 31.796875 -58.078125 C 32.753906 -58.378906 34.03125 -58.53125 35.625 -58.53125 C 37.21875 -58.53125 38.492188 -58.378906 39.453125 -58.078125 C 40.410156 -57.773438 41.078125 -57.242188 41.453125 -56.484375 C 41.835938 -55.722656 42.066406 -55.050781 42.140625 -54.46875 C 42.210938 -53.894531 42.25 -53.03125 42.25 -51.875 L 42.25 -6.65625 C 42.25 -5.5 42.210938 -4.628906 42.140625 -4.046875 C 42.066406 -3.472656 41.828125 -2.832031 41.421875 -2.125 C 40.660156 -0.757812 38.523438 -0.078125 35.015625 -0.078125 C 31.503906 -0.078125 29.550781 -1.3125 29.15625 -3.78125 C 27.03125 -1.363281 24.078125 -0.15625 20.296875 -0.15625 C 15.753906 -0.15625 11.613281 -2.132812 7.875 -6.09375 C 4.132812 -10.0625 2.265625 -14.679688 2.265625 -19.953125 C 2.265625 -25.222656 4.144531 -29.851562 7.90625 -33.84375 C 11.664062 -37.832031 15.796875 -39.828125 20.296875 -39.828125 C 24.023438 -39.828125 26.925781 -38.566406 29 -36.046875 L 29 -51.9375 C 29 -53.101562 29.035156 -53.972656 29.109375 -54.546875 C 29.191406 -55.128906 29.421875 -55.785156 29.796875 -56.515625 Z M 17.484375 -15.375 C 18.796875 -14.007812 20.382812 -13.328125 22.25 -13.328125 C 24.125 -13.328125 25.675781 -14.007812 26.90625 -15.375 C 28.144531 -16.738281 28.765625 -18.238281 28.765625 -19.875 C 28.765625 -21.519531 28.171875 -23.046875 26.984375 -24.453125 C 25.804688 -25.867188 24.207031 -26.578125 22.1875 -26.578125 C 20.164062 -26.578125 18.546875 -25.878906 17.328125 -24.484375 C 16.117188 -23.097656 15.515625 -21.570312 15.515625 -19.90625 C 15.515625 -18.25 16.171875 -16.738281 17.484375 -15.375 Z M 17.484375 -15.375 "/></g></g></g><g fill="#000000" fill-opacity="1"><g transform="translate(83.914271, 206.438593)"><g><path d="M 28.921875 -35.65625 C 29.222656 -38.488281 31.21875 -39.90625 34.90625 -39.90625 C 36.875 -39.90625 38.335938 -39.753906 39.296875 -39.453125 C 40.253906 -39.148438 40.921875 -38.617188 41.296875 -37.859375 C 41.679688 -37.097656 41.910156 -36.425781 41.984375 -35.84375 C 42.054688 -35.269531 42.09375 -34.398438 42.09375 -33.234375 L 42.09375 -6.734375 C 42.09375 -5.578125 42.054688 -4.707031 41.984375 -4.125 C 41.910156 -3.539062 41.695312 -2.875 41.34375 -2.125 C 40.632812 -0.8125 38.90625 -0.15625 36.15625 -0.15625 C 33.40625 -0.15625 31.5625 -0.492188 30.625 -1.171875 C 29.695312 -1.859375 29.15625 -2.859375 29 -4.171875 C 27.132812 -1.492188 24.015625 -0.15625 19.640625 -0.15625 C 15.273438 -0.15625 11.222656 -2.144531 7.484375 -6.125 C 3.753906 -10.113281 1.890625 -14.742188 1.890625 -20.015625 C 1.890625 -25.296875 3.769531 -29.914062 7.53125 -33.875 C 11.289062 -37.84375 15.414062 -39.828125 19.90625 -39.828125 C 21.625 -39.828125 23.191406 -39.523438 24.609375 -38.921875 C 26.023438 -38.316406 27.007812 -37.75 27.5625 -37.21875 C 28.113281 -36.6875 28.566406 -36.164062 28.921875 -35.65625 Z M 15.140625 -19.90625 C 15.140625 -18.25 15.796875 -16.75 17.109375 -15.40625 C 18.421875 -14.070312 20.007812 -13.40625 21.875 -13.40625 C 23.75 -13.40625 25.300781 -14.082031 26.53125 -15.4375 C 27.769531 -16.800781 28.390625 -18.300781 28.390625 -19.9375 C 28.390625 -21.582031 27.796875 -23.113281 26.609375 -24.53125 C 25.421875 -25.945312 23.832031 -26.65625 21.84375 -26.65625 C 19.851562 -26.65625 18.238281 -25.945312 17 -24.53125 C 15.757812 -23.113281 15.140625 -21.570312 15.140625 -19.90625 Z M 15.140625 -19.90625 "/></g></g></g><g fill="#000000" fill-opacity="1"><g transform="translate(130.177104, 206.438593)"><g><path d="M 26.203125 -26.5 L 21.28125 -26.796875 L 21.28125 -16.359375 C 21.28125 -14.992188 21.492188 -14.007812 21.921875 -13.40625 C 22.347656 -12.800781 23.15625 -12.5 24.34375 -12.5 C 25.53125 -12.5 26.4375 -12.457031 27.0625 -12.375 C 27.695312 -12.300781 28.367188 -12.0625 29.078125 -11.65625 C 30.234375 -11 30.8125 -9.3125 30.8125 -6.59375 C 30.8125 -3.40625 30.109375 -1.457031 28.703125 -0.75 C 27.941406 -0.40625 27.269531 -0.191406 26.6875 -0.109375 C 26.101562 -0.0351562 25.257812 0 24.15625 0 C 18.90625 0 14.914062 -1.1875 12.1875 -3.5625 C 9.46875 -5.9375 8.109375 -9.945312 8.109375 -15.59375 L 8.109375 -26.796875 C 7.140625 -26.648438 6.097656 -26.578125 4.984375 -26.578125 C 3.878906 -26.578125 2.960938 -27.003906 2.234375 -27.859375 C 1.503906 -28.722656 1.140625 -30.1875 1.140625 -32.25 C 1.140625 -34.320312 1.265625 -35.820312 1.515625 -36.75 C 1.765625 -37.6875 2.117188 -38.359375 2.578125 -38.765625 C 3.378906 -39.421875 4.390625 -39.75 5.609375 -39.75 L 8.109375 -39.453125 L 8.109375 -47.25 C 8.109375 -48.40625 8.144531 -49.257812 8.21875 -49.8125 C 8.289062 -50.375 8.53125 -50.984375 8.9375 -51.640625 C 9.59375 -52.898438 11.535156 -53.53125 14.765625 -53.53125 C 18.191406 -53.53125 20.234375 -52.597656 20.890625 -50.734375 C 21.148438 -49.921875 21.28125 -48.632812 21.28125 -46.875 L 21.28125 -39.453125 C 23.5 -39.648438 25.175781 -39.75 26.3125 -39.75 C 27.445312 -39.75 28.300781 -39.710938 28.875 -39.640625 C 29.457031 -39.566406 30.128906 -39.328125 30.890625 -38.921875 C 32.203125 -38.265625 32.859375 -36.320312 32.859375 -33.09375 C 32.859375 -29.90625 32.175781 -27.960938 30.8125 -27.265625 C 30.0625 -26.910156 29.394531 -26.691406 28.8125 -26.609375 C 28.226562 -26.535156 27.359375 -26.5 26.203125 -26.5 Z M 26.203125 -26.5 "/></g></g></g><g fill="#000000" fill-opacity="1"><g transform="translate(165.309599, 206.438593)"><g><path d="M 28.921875 -35.65625 C 29.222656 -38.488281 31.21875 -39.90625 34.90625 -39.90625 C 36.875 -39.90625 38.335938 -39.753906 39.296875 -39.453125 C 40.253906 -39.148438 40.921875 -38.617188 41.296875 -37.859375 C 41.679688 -37.097656 41.910156 -36.425781 41.984375 -35.84375 C 42.054688 -35.269531 42.09375 -34.398438 42.09375 -33.234375 L 42.09375 -6.734375 C 42.09375 -5.578125 42.054688 -4.707031 41.984375 -4.125 C 41.910156 -3.539062 41.695312 -2.875 41.34375 -2.125 C 40.632812 -0.8125 38.90625 -0.15625 36.15625 -0.15625 C 33.40625 -0.15625 31.5625 -0.492188 30.625 -1.171875 C 29.695312 -1.859375 29.15625 -2.859375 29 -4.171875 C 27.132812 -1.492188 24.015625 -0.15625 19.640625 -0.15625 C 15.273438 -0.15625 11.222656 -2.144531 7.484375 -6.125 C 3.753906 -10.113281 1.890625 -14.742188 1.890625 -20.015625 C 1.890625 -25.296875 3.769531 -29.914062 7.53125 -33.875 C 11.289062 -37.84375 15.414062 -39.828125 19.90625 -39.828125 C 21.625 -39.828125 23.191406 -39.523438 24.609375 -38.921875 C 26.023438 -38.316406 27.007812 -37.75 27.5625 -37.21875 C 28.113281 -36.6875 28.566406 -36.164062 28.921875 -35.65625 Z M 15.140625 -19.90625 C 15.140625 -18.25 15.796875 -16.75 17.109375 -15.40625 C 18.421875 -14.070312 20.007812 -13.40625 21.875 -13.40625 C 23.75 -13.40625 25.300781 -14.082031 26.53125 -15.4375 C 27.769531 -16.800781 28.390625 -18.300781 28.390625 -19.9375 C 28.390625 -21.582031 27.796875 -23.113281 26.609375 -24.53125 C 25.421875 -25.945312 23.832031 -26.65625 21.84375 -26.65625 C 19.851562 -26.65625 18.238281 -25.945312 17 -24.53125 C 15.757812 -23.113281 15.140625 -21.570312 15.140625 -19.90625 Z M 15.140625 -19.90625 "/></g></g></g><g fill="#000000" fill-opacity="1"><g transform="translate(37.500002, 272.690571)"><g><path d="M 24.90625 -39.828125 C 29.40625 -39.828125 33.535156 -37.832031 37.296875 -33.84375 C 41.054688 -29.851562 42.9375 -25.222656 42.9375 -19.953125 C 42.9375 -14.679688 41.066406 -10.0625 37.328125 -6.09375 C 33.585938 -2.132812 29.570312 -0.15625 25.28125 -0.15625 C 21 -0.15625 17.945312 -1.363281 16.125 -3.78125 C 15.71875 -1.3125 13.546875 -0.078125 9.609375 -0.078125 C 6.429688 -0.078125 4.488281 -0.757812 3.78125 -2.125 C 3.425781 -2.875 3.210938 -3.539062 3.140625 -4.125 C 3.066406 -4.707031 3.03125 -5.578125 3.03125 -6.734375 L 3.03125 -51.9375 C 3.03125 -53.101562 3.066406 -53.972656 3.140625 -54.546875 C 3.210938 -55.128906 3.425781 -55.773438 3.78125 -56.484375 C 4.488281 -57.847656 6.457031 -58.53125 9.6875 -58.53125 C 12.875 -58.53125 14.796875 -57.847656 15.453125 -56.484375 C 15.847656 -55.722656 16.082031 -55.050781 16.15625 -54.46875 C 16.238281 -53.894531 16.28125 -53.03125 16.28125 -51.875 L 16.28125 -36.125 C 18.300781 -38.59375 21.175781 -39.828125 24.90625 -39.828125 Z M 18.28125 -15.375 C 19.519531 -14.007812 21.070312 -13.328125 22.9375 -13.328125 C 24.8125 -13.328125 26.40625 -14.007812 27.71875 -15.375 C 29.03125 -16.738281 29.6875 -18.25 29.6875 -19.90625 C 29.6875 -21.570312 29.078125 -23.097656 27.859375 -24.484375 C 26.648438 -25.878906 25.035156 -26.578125 23.015625 -26.578125 C 20.992188 -26.578125 19.390625 -25.867188 18.203125 -24.453125 C 17.023438 -23.046875 16.4375 -21.519531 16.4375 -19.875 C 16.4375 -18.238281 17.050781 -16.738281 18.28125 -15.375 Z M 18.28125 -15.375 "/></g></g></g><g fill="#000000" fill-opacity="1"><g transform="translate(83.459969, 272.690571)"><g><path d="M 28.921875 -35.65625 C 29.222656 -38.488281 31.21875 -39.90625 34.90625 -39.90625 C 36.875 -39.90625 38.335938 -39.753906 39.296875 -39.453125 C 40.253906 -39.148438 40.921875 -38.617188 41.296875 -37.859375 C 41.679688 -37.097656 41.910156 -36.425781 41.984375 -35.84375 C 42.054688 -35.269531 42.09375 -34.398438 42.09375 -33.234375 L 42.09375 -6.734375 C 42.09375 -5.578125 42.054688 -4.707031 41.984375 -4.125 C 41.910156 -3.539062 41.695312 -2.875 41.34375 -2.125 C 40.632812 -0.8125 38.90625 -0.15625 36.15625 -0.15625 C 33.40625 -0.15625 31.5625 -0.492188 30.625 -1.171875 C 29.695312 -1.859375 29.15625 -2.859375 29 -4.171875 C 27.132812 -1.492188 24.015625 -0.15625 19.640625 -0.15625 C 15.273438 -0.15625 11.222656 -2.144531 7.484375 -6.125 C 3.753906 -10.113281 1.890625 -14.742188 1.890625 -20.015625 C 1.890625 -25.296875 3.769531 -29.914062 7.53125 -33.875 C 11.289062 -37.84375 15.414062 -39.828125 19.90625 -39.828125 C 21.625 -39.828125 23.191406 -39.523438 24.609375 -38.921875 C 26.023438 -38.316406 27.007812 -37.75 27.5625 -37.21875 C 28.113281 -36.6875 28.566406 -36.164062 28.921875 -35.65625 Z M 15.140625 -19.90625 C 15.140625 -18.25 15.796875 -16.75 17.109375 -15.40625 C 18.421875 -14.070312 20.007812 -13.40625 21.875 -13.40625 C 23.75 -13.40625 25.300781 -14.082031 26.53125 -15.4375 C 27.769531 -16.800781 28.390625 -18.300781 28.390625 -19.9375 C 28.390625 -21.582031 27.796875 -23.113281 26.609375 -24.53125 C 25.421875 -25.945312 23.832031 -26.65625 21.84375 -26.65625 C 19.851562 -26.65625 18.238281 -25.945312 17 -24.53125 C 15.757812 -23.113281 15.140625 -21.570312 15.140625 -19.90625 Z M 15.140625 -19.90625 "/></g></g></g><g fill="#000000" fill-opacity="1"><g transform="translate(129.722802, 272.690571)"><g><path d="M 3.328125 -3.5625 C 2.367188 -4.164062 1.890625 -5.125 1.890625 -6.4375 C 1.890625 -7.75 2.847656 -9.742188 4.765625 -12.421875 C 5.328125 -13.273438 6.222656 -13.703125 7.453125 -13.703125 C 8.691406 -13.703125 10.367188 -13.082031 12.484375 -11.84375 C 14.609375 -10.613281 16.53125 -10 18.25 -10 C 21.320312 -10 22.859375 -10.601562 22.859375 -11.8125 C 22.859375 -12.769531 21.171875 -13.476562 17.796875 -13.9375 C 14.617188 -14.382812 11.460938 -15.566406 8.328125 -17.484375 C 6.867188 -18.398438 5.65625 -19.828125 4.6875 -21.765625 C 3.726562 -23.710938 3.25 -26.023438 3.25 -28.703125 C 3.25 -36.671875 8.726562 -40.65625 19.6875 -40.65625 C 23.269531 -40.65625 26.953125 -39.800781 30.734375 -38.09375 C 32.503906 -37.28125 33.390625 -36.265625 33.390625 -35.046875 C 33.390625 -33.835938 32.832031 -32.347656 31.71875 -30.578125 C 30.613281 -28.816406 29.476562 -27.9375 28.3125 -27.9375 C 27.707031 -27.9375 26.582031 -28.316406 24.9375 -29.078125 C 23.300781 -29.835938 21.523438 -30.21875 19.609375 -30.21875 C 16.628906 -30.21875 15.140625 -29.660156 15.140625 -28.546875 C 15.140625 -27.035156 16.859375 -26.050781 20.296875 -25.59375 C 23.628906 -25.238281 26.859375 -24.28125 29.984375 -22.71875 C 31.453125 -22.007812 32.675781 -20.785156 33.65625 -19.046875 C 34.644531 -17.304688 35.140625 -15.125 35.140625 -12.5 C 35.140625 -9.875 34.644531 -7.640625 33.65625 -5.796875 C 32.675781 -3.953125 31.300781 -2.578125 29.53125 -1.671875 C 26.300781 -0.0976562 22.25 0.6875 17.375 0.6875 C 12.507812 0.6875 7.828125 -0.726562 3.328125 -3.5625 Z M 3.328125 -3.5625 "/></g></g></g><g fill="#000000" fill-opacity="1"><g transform="translate(167.883963, 272.690571)"><g><path d="M 41.5 -24.71875 C 41.5 -21.613281 40.726562 -19.316406 39.1875 -17.828125 C 37.644531 -16.335938 35.941406 -15.59375 34.078125 -15.59375 L 16.125 -15.59375 C 16.125 -14.1875 16.957031 -13 18.625 -12.03125 C 20.289062 -11.070312 21.957031 -10.59375 23.625 -10.59375 C 26.550781 -10.59375 28.847656 -10.898438 30.515625 -11.515625 L 31.34375 -11.8125 C 32.5625 -12.363281 33.570312 -12.640625 34.375 -12.640625 C 35.988281 -12.640625 37.378906 -11.503906 38.546875 -9.234375 C 39.203125 -7.867188 39.53125 -6.707031 39.53125 -5.75 C 39.53125 -1.257812 34.148438 0.984375 23.390625 0.984375 C 19.660156 0.984375 16.34375 0.34375 13.4375 -0.9375 C 10.539062 -2.226562 8.28125 -3.9375 6.65625 -6.0625 C 3.476562 -10.144531 1.890625 -14.710938 1.890625 -19.765625 C 1.890625 -26.117188 3.945312 -31.203125 8.0625 -35.015625 C 12.175781 -38.828125 17.3125 -40.734375 23.46875 -40.734375 C 30.488281 -40.734375 35.640625 -38.257812 38.921875 -33.3125 C 40.640625 -30.6875 41.5 -27.820312 41.5 -24.71875 Z M 25.515625 -22.484375 C 27.429688 -22.484375 28.390625 -23.289062 28.390625 -24.90625 C 28.390625 -26.070312 27.945312 -27.003906 27.0625 -27.703125 C 26.1875 -28.410156 24.925781 -28.765625 23.28125 -28.765625 C 21.644531 -28.765625 20.019531 -28.097656 18.40625 -26.765625 C 16.789062 -25.429688 15.984375 -24.003906 15.984375 -22.484375 Z M 25.515625 -22.484375 "/></g></g></g><g fill="#000000" fill-opacity="1"><g transform="translate(37.500002, 303.961504)"><g><path d="M 8.34375 -3.5 C 7.921875 -2.589844 6.890625 -1.96875 5.832031 -1.96875 C 4.164062 -1.96875 2.832031 -3.390625 2.832031 -5.148438 C 2.832031 -6.890625 4.164062 -8.328125 5.832031 -8.328125 C 6.875 -8.328125 7.90625 -7.753906 8.328125 -6.828125 L 10.859375 -6.828125 C 10.160156 -8.933594 8.175781 -10.449219 5.832031 -10.449219 C 2.90625 -10.449219 0.53125 -8.070312 0.53125 -5.148438 C 0.53125 -2.226562 2.90625 0.152344 5.832031 0.152344 C 8.175781 0.152344 10.175781 -1.378906 10.871094 -3.5 Z M 8.34375 -3.5 "/></g></g></g><g fill="#000000" fill-opacity="1"><g transform="translate(51.780165, 303.961504)"><g><path d="M 8.859375 -5.164062 C 8.859375 -3.574219 7.421875 -2.121094 5.832031 -2.121094 C 4.238281 -2.121094 2.800781 -3.574219 2.800781 -5.164062 C 2.800781 -6.753906 4.238281 -8.191406 5.832031 -8.191406 C 7.421875 -8.191406 8.859375 -6.753906 8.859375 -5.164062 Z M 11.128906 -5.148438 C 11.128906 -7.996094 8.675781 -10.449219 5.832031 -10.449219 C 2.984375 -10.449219 0.53125 -7.996094 0.53125 -5.148438 C 0.53125 -2.300781 2.984375 0.152344 5.832031 0.152344 C 8.675781 0.152344 11.128906 -2.300781 11.128906 -5.148438 Z M 11.128906 -5.148438 "/></g></g></g><g fill="#000000" fill-opacity="1"><g transform="translate(66.469196, 303.961504)"><g><path d="M 13.75 0 L 11.75 -10.296875 L 9.054688 -10.296875 L 6.921875 -3.074219 L 4.769531 -10.296875 L 2.074219 -10.296875 L 0.0742188 0 L 2.574219 0 L 3.785156 -7.101562 L 5.800781 0 L 8.027344 0 L 10.039062 -7.101562 L 11.25 0 Z M 13.75 0 "/></g></g></g><g fill="#000000" fill-opacity="1"><g transform="translate(83.323729, 303.961504)"><g><path d="M 3.179688 0 L 3.179688 -10.296875 L 0.910156 -10.296875 L 0.910156 0 Z M 3.179688 0 "/></g></g></g><g fill="#000000" fill-opacity="1"><g transform="translate(90.441092, 303.961504)"><g><path d="M 8.996094 0 L 8.996094 -10.296875 L 6.722656 -10.296875 L 6.722656 -3.875 L 3.179688 -10.296875 L 0.910156 -10.296875 L 0.910156 0 L 3.179688 0 L 3.179688 -6.421875 L 6.722656 0 Z M 8.996094 0 "/></g></g></g><g fill="#000000" fill-opacity="1"><g transform="translate(103.373497, 303.961504)"><g><path d="M 6.058594 -8.328125 C 7.058594 -8.328125 8.085938 -7.921875 8.585938 -6.828125 L 11.085938 -6.828125 C 10.375 -8.964844 8.328125 -10.449219 6.058594 -10.449219 C 3.148438 -10.449219 0.757812 -8.054688 0.757812 -5.148438 C 0.757812 -2.242188 3.148438 0.152344 6.058594 0.152344 C 8.996094 0.152344 11.34375 -2.226562 11.34375 -5.148438 L 11.34375 -5.496094 L 6.269531 -5.496094 L 6.269531 -3.785156 L 8.890625 -3.785156 C 8.328125 -2.226562 7.058594 -1.90625 6.058594 -1.90625 C 4.421875 -1.90625 3.058594 -3.378906 3.058594 -5.117188 C 3.058594 -6.859375 4.421875 -8.328125 6.058594 -8.328125 Z M 6.058594 -8.328125 "/></g></g></g><g fill="#000000" fill-opacity="1"><g transform="translate(118.274538, 303.961504)"><g/></g></g><g fill="#000000" fill-opacity="1"><g transform="translate(125.089032, 303.961504)"><g><path d="M 4.90625 -1.605469 C 3.785156 -1.605469 2.816406 -2.164062 2.757812 -3.390625 L 0.453125 -3.390625 C 0.46875 -0.878906 2.542969 0.242188 4.816406 0.242188 C 6.921875 0.242188 9.085938 -0.652344 9.085938 -3.074219 C 9.085938 -6.996094 3.132812 -5.679688 3.132812 -7.511719 C 3.132812 -8.285156 4.027344 -8.585938 4.664062 -8.585938 C 5.800781 -8.585938 6.421875 -8.238281 6.542969 -7.164062 L 8.738281 -7.164062 C 8.660156 -9.511719 6.753906 -10.449219 4.632812 -10.449219 C 2.757812 -10.449219 0.789062 -9.449219 0.789062 -7.328125 C 0.789062 -3.527344 6.738281 -4.816406 6.738281 -2.816406 C 6.738281 -1.894531 5.617188 -1.605469 4.90625 -1.605469 Z M 4.90625 -1.605469 "/></g></g></g><g fill="#000000" fill-opacity="1"><g transform="translate(137.657992, 303.961504)"><g><path d="M 8.859375 -5.164062 C 8.859375 -3.574219 7.421875 -2.121094 5.832031 -2.121094 C 4.238281 -2.121094 2.800781 -3.574219 2.800781 -5.164062 C 2.800781 -6.753906 4.238281 -8.191406 5.832031 -8.191406 C 7.421875 -8.191406 8.859375 -6.753906 8.859375 -5.164062 Z M 11.128906 -5.148438 C 11.128906 -7.996094 8.675781 -10.449219 5.832031 -10.449219 C 2.984375 -10.449219 0.53125 -7.996094 0.53125 -5.148438 C 0.53125 -2.300781 2.984375 0.152344 5.832031 0.152344 C 8.675781 0.152344 11.128906 -2.300781 11.128906 -5.148438 Z M 11.128906 -5.148438 "/></g></g></g><g fill="#000000" fill-opacity="1"><g transform="translate(152.34702, 303.961504)"><g><path d="M 8.859375 -5.164062 C 8.859375 -3.574219 7.421875 -2.121094 5.832031 -2.121094 C 4.238281 -2.121094 2.800781 -3.574219 2.800781 -5.164062 C 2.800781 -6.753906 4.238281 -8.191406 5.832031 -8.191406 C 7.421875 -8.191406 8.859375 -6.753906 8.859375 -5.164062 Z M 11.128906 -5.148438 C 11.128906 -7.996094 8.675781 -10.449219 5.832031 -10.449219 C 2.984375 -10.449219 0.53125 -7.996094 0.53125 -5.148438 C 0.53125 -2.300781 2.984375 0.152344 5.832031 0.152344 C 8.675781 0.152344 11.128906 -2.300781 11.128906 -5.148438 Z M 11.128906 -5.148438 "/></g></g></g><g fill="#000000" fill-opacity="1"><g transform="translate(167.036056, 303.961504)"><g><path d="M 8.996094 0 L 8.996094 -10.296875 L 6.722656 -10.296875 L 6.722656 -3.875 L 3.179688 -10.296875 L 0.910156 -10.296875 L 0.910156 0 L 3.179688 0 L 3.179688 -6.421875 L 6.722656 0 Z M 8.996094 0 "/></g></g></g></svg>